<svg xmlns="http://www.w3.org/2000/svg" xmlns:xlink="http://www.w3.org/1999/xlink" viewBox="0 0 125.89 64.416"><style><![CDATA[.B{fill:#e6b079}.C{fill:#d29c6e}.D{fill:#6a4c4c}.E{fill:#efc087}.F{fill:#e4e9f6}.G{fill:#553f37}.H{fill:#795651}.I{fill:#5b4247}.J{fill:#fdc98e}.K{fill:#f0f3fa}.L{fill:#9e6f49}.M{fill:#8e603e}.N{fill:#6ca1d6}.O{fill:#a1d1ee}.P{fill:#e6646e}.Q{fill:#ebc19c}.R{fill:#65473d}.S{fill:#5c5e6f}.T{fill:#525363}.U{fill:#ffd7a3}.V{fill:#485e6e}.W{fill:#fcccac}]]></style><defs><path id="A" d="M10.25 3.108c4.365 0 7.903 3.538 7.903 7.904s-3.538 7.903-7.903 7.903-7.903-3.538-7.903-7.903 3.538-7.904 7.903-7.904z"/><path id="B" d="M94.59 14.122c.108 0 .196.088.196.197s-.088.196-.196.196-.198-.087-.198-.196.088-.197.198-.197z"/><path id="C" d="M94.59 15.235c.108 0 .196.088.196.197s-.088.197-.196.197-.198-.088-.198-.197.088-.197.198-.197z"/><path id="D" d="M29.56 51.887a.22.22 0 0 1-.219-.22v-.22a.22.22 0 0 1 .219-.219.22.22 0 0 1 .219.219v.22a.22.22 0 0 1-.219.22z"/><path id="E" d="M52.24 58.65a.22.22 0 1 1 0 .44.22.22 0 1 1 0-.44z"/><path id="F" d="M54 58.65a.22.22 0 1 1 0 .44.22.22 0 0 1-.22-.22c-.001-.122.098-.22.22-.22z"/></defs><clipPath id="G"><use xlink:href="#A"/></clipPath><g clip-path="url(#G)"><path fill="#401d0e" d="M14.912 11.322v7.34l-9.306-.16v-7.34z"/><g fill="#f0d0b5"><path d="M13.76 8.004v2.378c0 .025 0 .06-.008.085 0 .017 0 .042-.008.058v.035c0 .024 0 .042-.01.067 0 .042-.008.084-.017.126 0 .008 0 .017-.008.033 0 .018-.008.043-.008.06-.008.033-.008.06-.017.093l-.025.125v.025c-.008.034-.008.05-.017.075 0 .01 0 .018-.01.025 0 .018-.008.035-.008.05 0 .01-.008.018-.008.025s-.01.018-.01.025l-.06.2a.51.51 0 0 1-.033.1v.01c-.008.025-.017.06-.034.083 0 .008-.01.017-.01.025-.008.026-.017.058-.033.085-.017.033-.025.068-.042.1-.008.025-.024.06-.043.084l-.05.11-.05.093-.102.184-.05.085c-.134.226-.276.445-.445.638-.025.025-.042.06-.066.084l-.1.118c-.025.034-.06.068-.085.093a2.85 2.85 0 0 1-.251.26l-.05.05a.93.93 0 0 1-.092.076c-.026.016-.05.04-.077.06a2.4 2.4 0 0 1-.185.142c-.024.017-.05.043-.075.06-.043.035-.085.06-.134.092l-.076.052-.27.15c-.025.01-.042.026-.067.034a.26.26 0 0 0-.067.033c-.024.018-.06.025-.083.034-.008.01-.025.01-.034.017-.033.017-.067.025-.1.042-.043.018-.084.026-.126.043l-.093.025a.45.45 0 0 1-.091.016c-.01 0-.018 0-.026.008-.025.01-.05.01-.076.01-.034.008-.066.008-.1.008h-.234c-.025 0-.05 0-.077-.008l-.118-.017c-.025-.008-.06-.008-.084-.016a2.56 2.56 0 0 1-.453-.151c-.135-.06-.26-.127-.396-.2l-.2-.126c-.033-.026-.067-.05-.1-.068l-.3-.244-.085-.075-.083-.075c-.067-.06-.126-.125-.185-.193-.033-.033-.058-.058-.084-.093l-.277-.336-.25-.36c-.017-.034-.042-.067-.06-.102-.024-.04-.05-.083-.067-.125l-.235-.487-.025-.076c-.016-.036-.024-.07-.032-.094l-.05-.135c-.016-.042-.033-.093-.042-.143-.017-.042-.025-.093-.042-.135-.017-.05-.026-.1-.042-.15l-.042-.227-.043-.286c-.008-.034-.008-.06-.008-.093s-.008-.067-.008-.092c-.008-.06-.008-.118-.008-.177v-2.3a3.52 3.52 0 0 1 3.326-3.51h.387a3.18 3.18 0 0 1 .58.085 3.46 3.46 0 0 1 .656.218 3.47 3.47 0 0 1 .788.486c.2.168.386.353.538.555.463.587.74 1.327.747 2.133.04.008.04.026.04.033z"/><path d="M14.83 19.964H5.665c0-.512.084-1.008.243-1.47l.1-.27.11-.244c.15-.318.336-.613.555-.9l.167-.2c.025-.035.06-.07.092-.1l.093-.092c.15-.15.32-.294.495-.43.084-.067.177-.125.27-.185.01-.007.026-.017.035-.024a.56.56 0 0 1 .101-.06c.05-.025.092-.05.143-.084.033-.016.075-.042.11-.067a2.45 2.45 0 0 0 .31-.218c.42-.33.74-.782.924-1.285.05-.15.093-.302.126-.47.026-.167.042-.336.042-.512h1.345c0 .167.016.335.042.503a2.56 2.56 0 0 0 .118.462c.185.513.504.958.923 1.294.06.05.126.1.193.142.01.008.018.008.018.017.033.017.058.042.09.058.034.026.076.043.1.068l.243.143c.042.025.076.04.1.067.076.042.143.092.21.15l.252.203a2.86 2.86 0 0 1 .235.218c.496.495.882 1.1 1.11 1.772a4.49 4.49 0 0 1 .26 1.505z"/></g><path fill="#9f58a3" d="M14.83 19.964H5.665c0-.512.084-1.008.243-1.47l.1-.27.11-.244c.15-.318.336-.613.555-.9l.167-.2c.025-.035.06-.07.092-.1l.093-.092c.15-.15.32-.294.495-.43.084-.067.177-.125.27-.185.01-.007.026-.017.035-.024a.56.56 0 0 1 .101-.06c.05-.025.092-.06.143-.084.033-.016.075-.042.11-.067a2.45 2.45 0 0 0 .31-.218 2.51 2.51 0 0 0 1.765.748h.01c.688 0 1.31-.287 1.764-.74.06.052.126.102.193.144.007.008.017.008.017.017.034.016.066.04.09.058.034.026.077.043.11.06l.244.143c.04.024.075.04.1.067.076.042.143.092.2.15l.25.2c.085.067.16.144.235.22a4.6 4.6 0 0 1 1.11 1.772c.16.496.244.983.244 1.495z"/><path fill="#401d0e" d="M14.93 17.435c-.01 0-.018.01-.018.01-.454.118-2.243-2.04-2.26-4.3 0-.184.008-.36.034-.545.06-.487.295-.958.487-1.428.152-.38.286-.748.286-1.134 0-2.074-.604-1.394-2.276-2.52l-.915-.672c-.623-.495-.78-.67-1.64-.67-1.083 0-1.52 1.89-1.638 2.696-.134.864-.134 2.276.404 3.612.42 1.04.42 2.058-.404 3.183-.31.42-.78 1.855-1.377 2.318-.185.143-.378.193-.58.092-1.612-.823-.638-3.468-.16-5.132.52-1.78.68-3.594 1.058-5.4.412-2.034 2.15-3.268 2.847-2.764.236-.42.848-.58 1.47-.58.462 0 .924.083 1.26.217 2.562.99 2.604 3.37 2.738 4.35.11.814.513 1.58.655 2.384.034.168.05.345.05.514.008.94-.102 1.58.613 2.36.555.605.135 3.057-.637 3.4z"/><g fill="#e7ecf1"><path d="M10.26 16.403c-.244.387-.647.58-1.06.58-.328 0-.664-.136-.916-.396l-.47-.505a2.62 2.62 0 0 1 .243-.142.65.65 0 0 0 .11-.067 2.48 2.48 0 0 0 .31-.218 2.5 2.5 0 0 0 1.764.747h.018z"/><path d="M12.686 16.092l-.462.497c-.252.268-.578.396-.915.396-.403 0-.807-.194-1.05-.572v-.01a2.49 2.49 0 0 0 1.764-.739c.06.052.126.1.193.144.007.008.017.008.017.016.034.016.066.042.09.06.034.024.077.042.11.058l.244.142.01.007z"/></g></g><path fill="#e3aa75" d="M35.647 14.212l-2.312-.68a.66.66 0 0 1-.473-.632v-1.043h-3.07V12.9a.66.66 0 0 1-.473.632l-2.31.68a1.32 1.32 0 0 0-.944 1.263v1.648c0 .364.294.658.658.658h9.21c.364 0 .658-.294.658-.658v-1.648c.002-.583-.384-1.097-.945-1.263z"/><g class="P"><path d="M35.647 14.212l-2.312-.68a.55.55 0 0 1-.112-.046l-1.894.345-1.896-.345c-.035.02-.072.035-.112.046l-2.31.68a1.32 1.32 0 0 0-.944 1.263v1.648c0 .364.294.658.658.658h9.21c.364 0 .658-.294.658-.658v-1.648c.001-.583-.385-1.097-.946-1.263z"/><path d="M28.734 14.036l1.086.93c.158.136.36.21.57.21.267 0 .518-.12.685-.33l.252-.313.252.313a.88.88 0 0 0 .685.329c.208 0 .412-.075.57-.21l1.092-.93c.087-.075.15-.17.18-.275l-.77-.227a.55.55 0 0 1-.112-.046l-1.894.345-1.896-.345c-.035.02-.072.035-.112.046l-.77.227c.034.104.093.2.18.275z"/></g><path d="M29.794 12.348c.46.247.985.39 1.536.39s1.076-.142 1.536-.39v-.49h-3.072v.49z" class="C"/><g fill="#f5b97d"><path d="M34.29 8.57h-.1V6.158h-5.703V8.57h-.1a.55.55 0 0 0-.549.548.55.55 0 0 0 .549.549h.12a2.85 2.85 0 0 0 5.681 0h.12a.55.55 0 0 0 .549-.549.55.55 0 0 0-.548-.548z"/><path d="M33.303 6.597v-.44h-4.825V8.57H28.4c-.286 0-.55.206-.578.492a.55.55 0 0 0 .545.605h.12a2.85 2.85 0 0 0 2.84 2.632c.15 0 .297-.013.44-.038a2.85 2.85 0 0 1-2.414-2.814V7.912a.88.88 0 0 1 .877-.877h2.633a.44.44 0 0 0 .44-.438z"/></g><g class="P"><path d="M31.33 13.833l-1.774-.984c-.11-.062-.246-.018-.302.094l-.276.55c-.035.072-.02.16.043.21l1.085.93c.187.16.474.134.63-.058l.594-.745z"/><path d="M31.33 13.833l1.774-.984c.11-.062.246-.018.303.094l.275.55c.035.072.02.16-.043.21l-1.085.93a.44.44 0 0 1-.629-.058l-.595-.745z"/></g><path d="M31.33 15.368a.22.22 0 1 1-.22.22.22.22 0 0 1 .22-.22zm0 1.317a.22.22 0 1 1-.22.219.22.22 0 0 1 .22-.219z" fill="#fec352"/><g fill="#5b4751"><path d="M33.788 5.72H28.87c-.668 0-1.182.594-1.083 1.257l.252 1.702.492-.06a.44.44 0 0 0 .386-.436v-1.15c0-.244.195-.438.438-.438h3.95c.244 0 .44.195.44.438V8.18a.44.44 0 0 0 .386.436l.493.06.25-1.702c.1-.66-.415-1.256-1.084-1.256z"/><path d="M34.282 4.24c-.042-.13-.192-.196-.313-.128-.227.128-.652.29-1.324.29h-2.193c-.85 0-1.536.688-1.536 1.536a.66.66 0 0 0 .658.659h3.5c.825-.001 1.648-.97 1.198-2.358z"/></g><path d="M28.04 15.807v1.974h-.66v-1.316a.66.66 0 0 1 .659-.658zm6.58 0v1.974h.657v-1.316a.66.66 0 0 0-.657-.658z" class="P"/><g fill="#ffe27e"><path d="M28.04 17.78h.878v-4.127l-.878.257zm6.58 0h-.88v-4.127l.88.257z"/><path d="M28.04 17.78h.44v-1.536c0-.243-.196-.438-.44-.438v1.974zm6.58 0h-.44v-1.536c0-.243.195-.438.44-.438v1.974z"/></g><path fill="#5b4751" d="M30.222 5.168c.003.3.28.55.588.55h2.976c.157 0 .307.035.44.094.2-.406.26-.947.056-1.576-.042-.13-.192-.193-.313-.126-.227.128-.652.29-1.324.29h-2.193c-.014.01-.03.017-.043.024-.117.216-.187.468-.187.733z"/><defs><path id="H" d="M52.426 3.155a7.83 7.83 0 0 1 7.83 7.829 7.83 7.83 0 0 1-7.83 7.829 7.83 7.83 0 0 1-7.829-7.829 7.83 7.83 0 0 1 7.829-7.829z"/></defs><clipPath id="I"><use xlink:href="#H"/></clipPath><path clip-path="url(#I)" d="M55.9 7.547l-.001 2.715-.012.232-.008.08-.046.327-.02.105c-.001.008-.003.015-.005.02-.006.037-.016.07-.023.106l-.013.056-.013.05-.06.206-.03.096-.034.098c-.003.008-.008.018-.01.027l-.03.082-.04.097-.038.088-.048.106-.046.095-.098.185-.046.082a4.85 4.85 0 0 1-.438.637c-.02.03-.042.057-.066.082l-.096.114-.1.096-.25.25c-.017.017-.036.032-.053.048l-.088.078-.07.06-.186.145-.078.056-.13.087-.074.047-.263.146-.063.032-.067.03-.086.037c-.01.005-.022.01-.033.013l-.1.037-.126.04-.088.023-.093.02c-.008.002-.016.003-.023.004l-.072.012-.103.01c-.013 0-.023.002-.036.002h-.08-.002c-.027 0-.053-.001-.08-.002-.01 0-.02-.001-.03-.002-.024-.001-.05-.005-.075-.007l-.112-.018c-.028-.004-.055-.01-.083-.017a2.34 2.34 0 0 1-.449-.153 3.15 3.15 0 0 1-.393-.205l-.197-.13-.097-.07-.302-.243-.083-.075-.08-.075-.196-.2-.075-.082-.198-.24-.07-.092-.246-.358-.06-.102-.07-.122a4.6 4.6 0 0 1-.234-.478l-.028-.07a.84.84 0 0 1-.038-.094l-.05-.137-.044-.137-.04-.135-.038-.146-.046-.223-.04-.28c-.005-.03-.007-.06-.01-.09l-.008-.095-.008-.173-.001-.114V7.547c0-1.923 1.558-3.482 3.48-3.483h.003c.265 0 .523.03.772.086.227.052.445.125.653.22a3.48 3.48 0 0 1 .78.483 3.51 3.51 0 0 1 .537.546 3.49 3.49 0 0 1 .739 2.149z" class="Q"/><defs><path id="J" d="M52.426 3.155a7.83 7.83 0 0 1 7.83 7.829 7.83 7.83 0 0 1-7.83 7.829 7.83 7.83 0 0 1-7.829-7.829 7.83 7.83 0 0 1 7.829-7.829z"/></defs><clipPath id="K"><use xlink:href="#J"/></clipPath><path clip-path="url(#K)" d="M56.966 19.86h-9.078 0c0-.512.085-1.007.243-1.466l.092-.247.106-.24a4.49 4.49 0 0 1 .552-.882l.168-.197.09-.096.1-.093c.153-.152.317-.292.5-.422l.265-.183.39-.23.207-.138.1-.076.223-.196.07-.07.137-.156.063-.08.06-.08a2.78 2.78 0 0 0 .364-.696c.108-.302.167-.627.167-.967l.662.002.68.003a2.86 2.86 0 0 0 .163.958c.09.25.2.484.36.696a2.9 2.9 0 0 0 .553.586l.095.073.095.066.02.015.094.06.107.062.24.14.103.07c.072.045.142.095.21.146v.001a4.57 4.57 0 0 1 .489.422 4.52 4.52 0 0 1 1.336 3.214z" class="Q"/><defs><path id="L" d="M52.426 3.155a7.83 7.83 0 0 1 7.83 7.829 7.83 7.83 0 0 1-7.83 7.829 7.83 7.83 0 0 1-7.829-7.829 7.83 7.83 0 0 1 7.829-7.829z"/></defs><clipPath id="M"><use xlink:href="#L"/></clipPath><path clip-path="url(#M)" fill="#c8d5e2" d="M56.966 19.86h-9.078c0-.512.084-1.007.242-1.466l.093-.247.106-.24a4.48 4.48 0 0 1 .552-.881l.168-.197.09-.096.1-.093c.153-.152.317-.292.5-.422l.265-.183.277-.164.003-.001.11-.063c.105-.064.208-.137.304-.215.445.455 1.062.737 1.746.74h.006c.685 0 1.305-.283 1.75-.736l.19.14c.007.006.012.01.02.015l.094.06.107.06.24.14.103.07c.072.045.142.095.21.146h.001c.173.13.337.272.49.423.828.82 1.338 1.954 1.338 3.2z"/><defs><path id="N" d="M52.426 3.155a7.83 7.83 0 0 1 7.83 7.829 7.83 7.83 0 0 1-7.83 7.829 7.83 7.83 0 0 1-7.829-7.829 7.83 7.83 0 0 1 7.829-7.829z"/></defs><clipPath id="O"><use xlink:href="#N"/></clipPath><path clip-path="url(#O)" d="M55.9 10.148l-.001.114-.012.232-.008.08-.046.327-.02.105c-.001.008-.003.015-.005.02-.006.037-.016.07-.023.106-.004.02-.01.04-.016.06l-.01.046-.06.206-.03.096-.034.098-.01.027-.032.082-.04.097-.038.088-.047.106-.046.095-.098.185-.046.082c-.13.227-.278.44-.438.637-.02.03-.042.057-.067.082l-.095.114-.1.096-.25.25c-.017.017-.036.032-.053.048l-.088.078-.07.06-.186.145-.078.056-.13.087-.074.047-.263.146-.063.032-.067.03-.085.037c-.01.005-.022.01-.033.013l-.1.037-.127.04-.088.023-.093.02c-.008.002-.016.003-.023.004l-.072.012-.103.01c-.013 0-.024.002-.036.002l-.08.002h-.002c-.027 0-.053-.001-.08-.002-.01 0-.02-.001-.03-.002-.023-.001-.048-.005-.074-.007l-.11-.018c-.028-.004-.055-.01-.083-.017-.146-.033-.298-.084-.45-.153a3.15 3.15 0 0 1-.393-.205l-.197-.13-.097-.07-.302-.243-.083-.075-.08-.075-.196-.2-.075-.082-.198-.24-.07-.092-.246-.358-.06-.102-.07-.122a4.6 4.6 0 0 1-.234-.478l-.028-.07c-.014-.03-.026-.063-.038-.094l-.05-.137-.044-.137-.038-.135-.038-.146-.046-.223-.04-.28c-.005-.03-.007-.06-.01-.09l-.008-.095-.008-.173-.001-.114.557 1.094.956.418 1.13.1.84.077h.004l.785.07 1.75.16.945-1.915z" class="G"/><defs><path id="P" d="M52.426 3.155a7.83 7.83 0 0 1 7.83 7.829 7.83 7.83 0 0 1-7.83 7.829 7.83 7.83 0 0 1-7.829-7.829 7.83 7.83 0 0 1 7.829-7.829z"/></defs><clipPath id="Q"><use xlink:href="#P"/></clipPath><path clip-path="url(#Q)" d="M55.168 5.398c-.17.386-.392.745-.654 1.07l-.046.056c-.537.646-1.24 1.15-2.044 1.442a4.63 4.63 0 0 1-.654.188 4.51 4.51 0 0 1-.458.074 4.39 4.39 0 0 1-.541.032c-.21 0-.417-.015-.62-.04s-.392-.062-.584-.11l-.318-.095-.306-.112v-.353c0-1.923 1.558-3.482 3.48-3.483h.003c.265 0 .524.03.772.085.227.052.444.125.652.22a3.42 3.42 0 0 1 .78.483 3.42 3.42 0 0 1 .537.546z" class="G"/><defs><path id="R" d="M52.426 3.155a7.83 7.83 0 0 1 7.83 7.829 7.83 7.83 0 0 1-7.83 7.829 7.83 7.83 0 0 1-7.829-7.829 7.83 7.83 0 0 1 7.829-7.829z"/></defs><clipPath id="S"><use xlink:href="#R"/></clipPath><path clip-path="url(#S)" d="M55.9 7.547v.685a5.36 5.36 0 0 1-1.441-1.705 5.32 5.32 0 0 1-.618-2.159 3.46 3.46 0 0 1 .78.483 3.51 3.51 0 0 1 .537.546 3.48 3.48 0 0 1 .742 2.15z" class="G"/><defs><path id="T" d="M52.426 3.155a7.83 7.83 0 0 1 7.83 7.829 7.83 7.83 0 0 1-7.83 7.829 7.83 7.83 0 0 1-7.829-7.829 7.83 7.83 0 0 1 7.829-7.829z"/></defs><clipPath id="U"><use xlink:href="#T"/></clipPath><path clip-path="url(#U)" d="M49.35 7.815l-.102.198c-.015.027-.027.055-.04.082a2.9 2.9 0 0 0-.266 1.075v.03-1.34l.001-.14.407.098z" class="G"/><defs><path id="V" d="M52.426 3.155a7.83 7.83 0 0 1 7.83 7.829 7.83 7.83 0 0 1-7.83 7.829 7.83 7.83 0 0 1-7.829-7.829 7.83 7.83 0 0 1 7.829-7.829z"/></defs><clipPath id="W"><use xlink:href="#V"/></clipPath><path clip-path="url(#W)" d="M55.504 7.815l.142.28c.174.387.26.765.266 1.105V7.857l-.002-.14-.406.098z" class="G"/><defs><path id="X" d="M52.426 3.155a7.83 7.83 0 0 1 7.83 7.829 7.83 7.83 0 0 1-7.83 7.829 7.83 7.83 0 0 1-7.829-7.829 7.83 7.83 0 0 1 7.829-7.829z"/></defs><clipPath id="Y"><use xlink:href="#X"/></clipPath><path clip-path="url(#Y)" fill="#1a1a1a" d="M55.498 8.16c0-.014-.012-.027-.026-.028a9.3 9.3 0 0 0-1.274-.095c-.677 0-1.55.213-1.703.213h-.136c-.07 0-.297-.047-.59-.096-.335-.058-.752-.117-1.113-.117a9.46 9.46 0 0 0-1.09.069l-.185.025c-.013.001-.024.015-.024.03l-.007.363c0 .014.01.025.02.03l.04.015c.06.023.055 1.12.383 1.393.193.163.367.254 1.095.254.42 0 .686-.114.938-.453.18-.245.342-.822.342-.822.05-.238.226-.256.254-.257.01 0 .21.003.26.257 0 0 .16.577.342.822.25.34.516.453.94.453.728 0 .9-.092 1.095-.254.327-.273.32-1.37.382-1.393l.04-.015c.012-.005.02-.016.02-.03l-.005-.363zm-3.67 1.297c-.107.253-.383.58-.772.6-1.168.06-1.222-.268-1.297-.525a1.75 1.75 0 0 1-.066-.744c.03-.26.096-.41.212-.487a.54.54 0 0 1 .247-.084c.125-.02.32-.03.643-.03.187 0 .36.015.518.04.417.067.697.207.697.348a2.62 2.62 0 0 1-.182.882zm3.27.076c-.076.257-.128.585-1.297.525-.39-.02-.666-.347-.772-.6a2.57 2.57 0 0 1-.182-.881c0-.192.532-.388 1.216-.388s.792.05.888.114c.117.077.182.227.213.487s.01.484-.066.743z"/><defs><path id="Z" d="M52.426 3.155a7.83 7.83 0 0 1 7.83 7.829 7.83 7.83 0 0 1-7.83 7.829 7.83 7.83 0 0 1-7.829-7.829 7.83 7.83 0 0 1 7.829-7.829z"/></defs><clipPath id="a"><use xlink:href="#Z"/></clipPath><g clip-path="url(#a)" class="G"><path d="M52.43 10.698v.844.296 1.002l-.003-.003-3.366-1.713-.046-.223-.04-.28c-.005-.03-.007-.06-.01-.09s-.006-.062-.007-.095l-.01-.173-.001-.114V9.17c.007.248.047.52.122.798.06.213.132.41.22.588.225.466.524.782.8.834l.052.005c.106.014.218.02.334.02.437 0 .824-.35 1.068-.493l.04-.025c.216-.124.512-.198.843-.2l.004.001z"/><path d="M55.9 9.127v1.022c0 .258-.023.51-.067.753l-.063.29-.8 1.14-2.563.508-.002-2.142h.006c.33.001.628.077.833.194l.047.028c.25.145.637.497 1.072.497a2.81 2.81 0 0 0 .335-.019c.017-.003.034-.004.052-.006.275-.052.576-.37.8-.834a3.57 3.57 0 0 0 .218-.589 3.36 3.36 0 0 0 .122-.808v-.034z"/></g><defs><path id="b" d="M52.426 3.155a7.83 7.83 0 0 1 7.83 7.829 7.83 7.83 0 0 1-7.83 7.829 7.83 7.83 0 0 1-7.829-7.829 7.83 7.83 0 0 1 7.829-7.829z"/></defs><clipPath id="c"><use xlink:href="#b"/></clipPath><path clip-path="url(#c)" d="M52.426 11.542c.472 0 .854.118.854.264s-.382.264-.854.264-.854-.118-.854-.264.383-.264.854-.264z" class="Q"/><defs><path id="d" d="M52.426 3.155a7.83 7.83 0 0 1 7.83 7.829 7.83 7.83 0 0 1-7.83 7.829 7.83 7.83 0 0 1-7.829-7.829 7.83 7.83 0 0 1 7.829-7.829z"/></defs><clipPath id="e"><use xlink:href="#d"/></clipPath><g clip-path="url(#e)" fill="#445464"><path d="M49.935 16.068v4.707h-.363v-4.44l.146-.115.217-.15zm4.983.002v4.706h.364v-4.44z"/></g><defs><path id="f" d="M52.426 3.155a7.83 7.83 0 0 1 7.83 7.829 7.83 7.83 0 0 1-7.83 7.829 7.83 7.83 0 0 1-7.829-7.829 7.83 7.83 0 0 1 7.829-7.829z"/></defs><clipPath id="g"><use xlink:href="#f"/></clipPath><g clip-path="url(#g)"><g fill="#151821"><path d="M51.43 15.78l.995 1.193.996-1.193z"/><path d="M52.426 21.916h-.588l.425-5.476c.018.07.3.07.328 0l.424 5.476h-.59z"/></g><path d="M52.426 15.774l-.002.004v.002l-.8 1.34-1.045-1.452.098-.076a2.79 2.79 0 0 0 .553-.58l1.195.76zm1.848-.106L53.23 17.12l-.387-.646-.415-.695-.002-.006 1.2-.765a2.9 2.9 0 0 0 .553.586l.095.074z" fill="#e7ecf1"/></g><g class="D"><path d="M73.488 4.083c.92 0 1.67.653 1.67 1.46s-.748 1.46-1.67 1.46-1.67-.653-1.67-1.46.747-1.46 1.67-1.46z"/><path d="M73.065 5.543c0-.612.433-1.136 1.044-1.352-.195-.066-.406-.108-.628-.108-.924 0-1.67.652-1.67 1.46s.75 1.46 1.67 1.46c.222 0 .433-.04.628-.107-.61-.21-1.044-.735-1.044-1.352z"/></g><path d="M76.55 13.858l-1.352-.674a.84.84 0 0 1-.463-.745v-1.254h-2.508v1.254a.83.83 0 0 1-.462.745l-1.348.674a1.25 1.25 0 0 0-.693 1.12v2.467c0 .23.185.416.417.416h6.68c.23 0 .415-.185.415-.416v-2.467a1.24 1.24 0 0 0-.687-1.12z" class="B"/><path d="M73.488 12.856c.45 0 .878-.093 1.273-.257-.01-.052-.02-.103-.02-.16v-1.254h-2.508v1.254c0 .057-.01.108-.02.16a3.31 3.31 0 0 0 1.277.257z" class="C"/><path fill="#3cbfef" d="M76.55 13.858l-.96-.483c-.447.69-1.224 1.146-2.102 1.146s-1.655-.457-2.103-1.146l-.96.483a1.25 1.25 0 0 0-.693 1.12v2.467c0 .23.185.416.415.416h6.68c.232 0 .417-.185.417-.416v-2.467c0-.472-.267-.904-.693-1.12z"/><g class="D"><path d="M73.488 5.337c1.614 0 2.923 1.31 2.923 2.924s-1.31 2.924-2.923 2.924-2.925-1.31-2.925-2.924 1.31-2.924 2.925-2.924z"/><path d="M76.38 7.856c-.16-1.192-1.074-2.2-2.246-2.446-.216-.046-.426-.072-.633-.072-1.402-.01-1.87 1.927-.61 2.54l.114.046 1.454 2.636.78.04a2.93 2.93 0 0 0 1.141-2.744z"/></g><path d="M73.488 12.02A2.51 2.51 0 0 1 71 9.834a.42.42 0 0 1 .221-.432 3.6 3.6 0 0 0 .74-.498c.3-.267.473-.544.57-.75.087-.174.283-.277.474-.23a7.2 7.2 0 0 1 2.836 1.454c.1.082.154.205.145.333a2.51 2.51 0 0 1-2.498 2.309z" class="E"/><path d="M75.84 9.377c-.364-.313-1.36-1.08-2.836-1.454a.42.42 0 0 0-.474.231 2.54 2.54 0 0 1-.38.555 2.3 2.3 0 0 1-.19.195c-.267.236-.544.4-.74.498a.42.42 0 0 0-.221.432c.144 1.105 1.007 1.98 2.107 2.148-.5-.338-.874-.8-.874-1.634v-.596l.287-.226a3.28 3.28 0 0 0 .598-.704c1.124.35 1.885.935 2.178 1.182l.504.467c.098-.236.164-.493.186-.76a.4.4 0 0 0-.145-.333z" class="B"/><path fill="#fff" d="M94.85 19.336c.495-1.038 1.024-4.545 1.024-4.545s-.455.696-1.293.696-1.273-.696-1.273-.696.522 3.51 1.024 4.545l.26.003.26-.003z"/><path fill="#3e1e11" d="M94.573 13.816c-2.62 0-4.722.75-4.97 1.674-.112.414-.237 1.195-.343 1.952a8.39 8.39 0 0 0 5.327 1.898c2.02 0 3.87-.713 5.324-1.898L99.57 15.5c-.25-.924-2.375-1.674-4.996-1.674z"/><path d="M92.84 13.782l-.425.176-.145 1.002.657.26-.298.577 1.96 3.317v-.512l-1.163-3.932-.586-.9zm3.495 0l.425.176.145 1.002-.657.26.3.577-1.958 3.317v-.512l1.16-3.932.586-.9z" fill="#25120c"/><path fill="#d5d7d8" d="M93.3 13.884l1.276.954 1.297-.954.065-.448-1.362-.177-1.34.177z"/><path fill="#e3a47a" d="M95.908 12.075h-2.64c.4 1.243.033 1.8.033 1.8l.913.438h.747l.913-.438c.001-.001-.38-.568.035-1.8z"/><path fill="#f3b382" d="M97.294 8.446c0-3.137-1.213-3.856-2.7-3.856s-2.708.72-2.708 3.856c0 1.062.19 1.894.475 2.535.625 1.412 1.708 1.904 2.233 1.904s1.606-.492 2.233-1.904c.287-.644.477-1.476.477-2.535z"/><path fill="#d5876b" d="M95.352 11.6s-.343.18-.763.18-.765-.18-.765-.18c0-.047.24-.325.404-.35.102-.017.36.085.36.085s.254-.098.353-.085c.165.025.41.35.41.35z"/><path fill="#cd785e" d="M95.352 11.6s-.343.31-.763.31-.765-.31-.765-.31.078-.095.525-.122c.075-.003.174.054.24.054.057 0 .142-.06.206-.058.466.025.558.126.558.126z"/><path fill="#e3a47a" d="M93.3 13.884s.57.954 1.276.954 1.297-.954 1.297-.954l-1.297-.625-1.276.625z"/><path d="M91.617 9.55c.146.856.326.893.588.85l-.275-1.86c-.262.048-.458.157-.313 1.012zm5.633-1l-.275 1.86c.258.045.44.004.588-.848.142-.86-.054-.968-.313-1.012z" fill="#f3b382"/><g fill="#161616"><path d="M94.59 3.768c.786 0 1.425.436 1.425.974s-.64.975-1.425.975-1.427-.436-1.427-.975.64-.974 1.427-.974z"/><path d="M97.393 8.58c1.265-3.056-.86-3.99-2.81-3.99s-4.1.933-2.807 3.99l2.807-2.04 2.81 2.04z"/><path d="M92.097 8.714a1.26 1.26 0 0 1-.014-.241c.002-.1.016-.16.016-.16l-.32.12v.146l.096-.03c.033.08.1.194.14.36.001-.002.126.093.08-.193zm4.997-.24c.002.068 0 .15-.016.24-.043.285.08.193.08.193.05-.17.108-.28.148-.356l.086.027V8.43l-.316-.12c0-.003.014.062.018.16"/></g><path fill="#c7c8c9" d="M94.59 18.603l1.28-4.356-1.295.075-1.276-.075z"/><path d="M96.543 13.966l-.608-.527-1.35.887 1.16.35.798-.7zm-3.913 0l.607-.527 1.353.887-1.163.35-.797-.7z" fill="#f3fafe"/><g fill="#1d1d1e"><use xlink:href="#B"/><path d="M94.59 14.678c.108 0 .196.088.196.196s-.088.198-.196.198-.198-.09-.198-.198.088-.196.198-.196z"/><use xlink:href="#C"/><use xlink:href="#C" y="0.557"/><path d="M94.59 16.35c.108 0 .196.087.196.196s-.088.197-.196.197-.198-.088-.198-.197.088-.196.198-.196z"/><use xlink:href="#B" y="2.783"/></g><g fill="#945c29"><path d="M117.416 4.533c-.522-.274-1.116-.43-1.747-.43a3.77 3.77 0 0 0-3.771 3.772v1.04c.147-.26.417-.44.73-.468v.001c0-.08.01-.156.024-.232l.02-.07c.001-.007.003-.013.006-.02l.016-.05c.004-.007.006-.015.008-.02l.023-.06.036-.077c.005-.008.01-.016.012-.023l.024-.043.017-.027.025-.04c.006-.01.01-.017.017-.025.012-.02.026-.04.04-.057.007-.01.016-.02.023-.03l.023-.03.028-.034.02-.023.124-.125.06-.053.062-.05.026-.02c.164-.12.35-.112.484-.08.447.235 1.13.386 1.898.386h.02.023c.768 0 1.45-.15 1.897-.386.136-.032.32-.038.485.08l.022.017.053.043.058.05.138.138.02.023c.01.01.02.022.03.034s.017.02.023.03l.024.03c.015.018.027.038.04.057l.017.025.025.04a.4.4 0 0 0 .017.027l.022.043c.005.007.01.015.013.023l.03.066c.014.03.022.05.027.07a.09.09 0 0 1 .008.021.38.38 0 0 1 .017.051c.002.007.005.013.007.02l.017.07c.017.076.025.153.025.232v-.002c.313.027.582.208.73.467V7.876c0-1.19-.55-2.25-1.4-2.94"/><path d="M116.158 7.62c.575-.047 1.078-.18 1.433-.366.135-.032.318-.038.484.08l.022.017.053.043.058.05.138.138.02.023c.01.01.02.022.03.034s.017.02.023.03l.024.03c.015.018.027.038.04.057a.22.22 0 0 0 .017.025l.025.04c.005.01.01.018.017.027l.022.043c.005.007.01.015.014.023l.03.066c.014.03.022.05.027.07.004.007.006.014.008.02a.63.63 0 0 1 .018.051l.006.02a.61.61 0 0 1 .017.071c.017.076.025.153.025.232v-.002c.313.027.582.208.73.467V7.876a3.76 3.76 0 0 0-1.093-2.655 7.51 7.51 0 0 0-2.19 2.4zm-3.67.256c0-1.983 1.53-3.608 3.474-3.76l-.293-.012a3.77 3.77 0 0 0-3.771 3.772v1.04c.126-.22.337-.383.6-.444v-.595z"/></g><path fill="#ddad65" d="M115.67 13.88a3.03 3.03 0 0 1-1.301-.292v1.566h.001c.005.357.585.646 1.3.646s1.296-.29 1.302-.646v-1.566a3.03 3.03 0 0 1-1.302.292z"/><path fill="#cb9348" d="M114.958 15.293v-1.497c-.205-.05-.403-.12-.6-.207v1.566h.001c.004.316.458.578 1.06.634-.285-.12-.467-.297-.47-.496z"/><g fill="#f9cf8c"><path d="M118.685 8.156l-.017-.072c-.001-.006-.004-.013-.006-.02l-.018-.052c-.002-.007-.004-.014-.008-.022-.006-.02-.014-.04-.022-.058l-.035-.077c-.005-.007-.01-.015-.014-.023l-.022-.043-.017-.027-.025-.04-.017-.025-.04-.057-.024-.032-.023-.03-.03-.033c-.006-.008-.013-.016-.02-.024l-.123-.124-.06-.052-.062-.052c-.012-.008-.02-.014-.026-.02-.166-.118-.35-.112-.484-.08-.447.235-1.13.386-1.898.386h-.044c-.768 0-1.45-.15-1.898-.386-.135-.032-.32-.038-.484.08l-.022.017-.053.043-.06.05-.137.137-.022.024-.028.033-.023.03c-.008.01-.017.02-.023.032l-.04.057-.017.025-.025.04c-.005.01-.01.018-.017.027-.008.014-.017.028-.022.043l-.014.023-.03.065-.03.07c-.002.008-.004.015-.008.022l-.016.052c-.003.006-.005.013-.006.02l-.018.072c-.017.076-.025.153-.025.232v2.805c0 .13.01.26.025.387a3.04 3.04 0 0 0 1.792 2.397l.255.1.132.04c.266.076.546.117.836.117a3.04 3.04 0 0 0 .838-.117l.132-.04.255-.1c.958-.422 1.655-1.32 1.792-2.397.017-.127.025-.256.025-.387V8.388a1.39 1.39 0 0 0-.029-.232z"/><path d="M118.668 8.085c-.001-.006-.004-.013-.006-.02l-.018-.052c-.002-.007-.004-.014-.008-.022a.5.5 0 0 0-.022-.058l-.035-.077c-.005-.007-.01-.015-.014-.023l-.022-.043-.017-.027-.025-.04-.017-.025-.04-.057-.024-.032-.023-.03-.03-.034c-.006-.008-.013-.016-.02-.024l-.123-.124-.06-.052-.062-.052a.17.17 0 0 1-.026-.02c-.166-.118-.35-.112-.484-.08-.354.187-.857.32-1.433.367a7.43 7.43 0 0 0-.985 3.71c0 1.053.22 2.053.6 2.96.25-.01.493-.048.724-.115l.132-.04.255-.1c.956-.422 1.655-1.32 1.792-2.397.017-.127.025-.256.025-.387V8.388a1.05 1.05 0 0 0-.025-.232l-.018-.07zm-6.038.282a.93.93 0 0 0-.853.93.93.93 0 0 0 .853.93v-1.86z"/><path d="M118.7 8.367c.478.04.854.44.854.93s-.376.9-.854.93v-1.86z"/></g><path fill="#60bf7f" d="M113.277 17.726h7.632a.36.36 0 0 0 .357-.358v-.32c0-1.3-1.055-2.354-2.354-2.354h-1.942v.107c-.007.356-.586.645-1.302.645s-1.295-.29-1.3-.645l-.001-.107h-1.942c-1.3 0-2.354 1.054-2.354 2.354v.32c0 .197.16.358.357.358h2.118"/><path fill="#884d21" d="M117.384 11.682c-.017-.016-.042-.02-.063-.008l-.02.01-.032.015-.01.004-.016.006-.033.01-.005.002-.026.008-.015.003-.027.006-.03.004-.02.002h-.016l-.024.001c-.02 0-.02-.001-.024-.001h-.008l-.025-.001-.017-.003-.023-.003-.02-.004-.017-.004-.02-.004-.028-.008-.02-.006-.026-.01-.02-.008-.02-.01c-.006-.002-.013-.005-.02-.008l-.17-.112-.024-.017-.013-.008-.03-.017-.042-.022-.02-.01-.008-.004-.024-.01-.022-.008-.02-.007-.02-.006-.02-.007-.02-.005-.02-.005-.02-.004-.03-.006-.02-.003-.01-.001-.01-.001-.027-.003-.02-.001h-.018-.02-.036c-.006.001-.013.001-.02.001h-.003l-.02.002-.02.001-.018.003-.018.002-.03.006-.032.006-.015.004-.03.01-.03.01-.028.01-.013.005-.012.005-.025.012-.022.01-.016.008-.01.006-.043.028-.018.013-.013.01-.006.006-.006.007-.006.006-.003-.001-.006-.007-.005-.006-.013-.01-.015-.01-.042-.03-.023-.013-.01-.007-.01-.005-.012-.005-.028-.014-.013-.005-.015-.005-.013-.005-.06-.018-.016-.004-.04-.008-.023-.005-.017-.003-.017-.002-.018-.002-.018-.001-.018-.002h-.02-.043-.02l-.02.002-.027.002-.008.002-.02.002-.02.003-.04.008-.02.004-.012.003-.02.006-.03.01-.02.007-.02.008-.042.018c-.008.003-.014.006-.02.01l-.012.005-.022.012-.02.012-.03.018c-.01.005-.016.01-.023.016l-.173.113-.02.01-.023.01-.038.014-.03.01-.044.01-.018.004-.017.002-.026.004-.017.001-.025.001-.023.001h-.017l-.045-.003-.02-.002-.018-.003-.02-.005-.032-.008-.038-.012-.012-.004-.05-.022-.023-.013c-.02-.01-.047-.007-.063.008s-.022.04-.014.06c.197.5.532.755.993.755h.005a1.68 1.68 0 0 0 .73-.193c.042.022.366.192.732.193h.003c.462 0 .797-.254.995-.755.063-.022.057-.046.04-.062z"/><path fill="#935327" d="M117.4 11.744c.008-.02.002-.046-.015-.06s-.043-.02-.063-.008l-.02.01-.032.015-.01.004-.016.006-.033.01-.005.002-.026.008-.042.01-.03.004-.02.002h-.016l-.024.001c-.02 0-.02-.001-.024-.001h-.008l-.025-.001-.017-.003-.023-.003-.02-.004-.017-.004-.02-.004-.028-.008-.02-.006-.026-.01-.02-.008-.02-.01c-.006-.002-.013-.005-.02-.008l-.17-.112-.024-.017-.013-.008-.03-.016-.042-.022-.02-.01-.008-.004-.024-.01-.022-.008-.02-.007-.02-.006-.02-.006-.02-.006-.02-.006-.02-.004-.03-.006-.02-.003-.01-.001-.01-.001-.027-.004-.02-.001h-.018-.02-.036c-.006.001-.013.001-.02.001h-.002l-.02.002-.02.001-.018.003-.018.002-.03.006-.032.006-.015.004-.03.01-.03.01-.014.005-.013.005-.014.005-.012.005-.025.012-.022.01-.016.008-.01.006-.043.028-.018.013-.013.01-.006.006-.006.007-.006.006-.003-.001-.006-.007-.005-.006-.013-.01-.014-.01-.043-.03-.023-.013-.01-.007-.01-.005-.012-.005-.028-.014-.013-.005-.015-.005-.013-.005-.06-.018-.016-.005-.04-.008-.023-.004-.017-.003-.017-.002-.018-.002-.018-.001-.018-.002h-.02-.044c.004.355.034.705.09 1.046a1.77 1.77 0 0 0 .402-.151c.042.022.366.192.732.193h.003c.5-.01.834-.262 1.032-.763z"/><path fill="#30b55f" d="M110.694 17.38v-.32c0-1.3 1.053-2.354 2.354-2.354h-.622c-1.3 0-2.354 1.054-2.354 2.354v.32c0 .197.16.358.357.358h.622c-.197 0-.357-.16-.357-.358z"/><path fill="#60bf7f" d="M118.913 14.707h-1.942v.107c-.005.226-.24.426-.597.54.65.983 1.528 1.802 2.56 2.385h1.977a.36.36 0 0 0 .357-.358v-.322c0-1.3-1.055-2.353-2.354-2.353z"/><path fill="#f9cf8c" d="M115.422 14.12l-.132-.04-.255-.096c-.957-.41-1.655-1.284-1.793-2.33a2.92 2.92 0 0 1-.024-.376V8.554c0-.077.01-.152.024-.226l.02-.07c.001-.006.004-.013.006-.02l.017-.05.008-.02.022-.057.036-.075c.005-.007.01-.015.013-.023l.024-.04.016-.026.025-.04c.006-.008.01-.017.017-.024l.04-.056.024-.03.022-.028.03-.033.02-.023.124-.12.06-.052.062-.05.026-.02c.112-.078.23-.1.34-.097a2.8 2.8 0 0 1-.445-.181c-.135-.032-.32-.038-.484.08l-.022.017-.053.043-.06.05-.138.137-.02.024-.028.033-.023.03c-.008.01-.017.02-.023.032l-.04.057c-.007.008-.01.017-.017.025l-.025.04a.4.4 0 0 1-.017.027c-.01.014-.017.028-.024.043-.003.008-.007.016-.012.023l-.03.065-.03.07c-.002.008-.004.015-.008.022l-.016.052c-.003.006-.005.013-.006.02l-.02.072a1.12 1.12 0 0 0-.024.232v2.805c0 .13.01.26.024.387.137 1.076.835 1.975 1.793 2.397l.255.1.132.04c.266.076.546.117.836.117l.293-.014c-.187-.018-.368-.052-.542-.1z"/><path fill="#f5b47b" d="M14.528 37.284l-.295-2.35c-.03-.25-.205-.46-.442-.54l-1.328-.443c-.112-.038-.232.022-.273.13l-.328-.11c-.178-.062-.298-.23-.298-.417v-.705l.942-.394a1.31 1.31 0 0 0 .806-1.21v-.22c.363 0 .655-.292.655-.656a.66.66 0 0 0-.177-.448c.11-.622.382-2.385.177-3.486-.122-.656-.438-1.093-.438-1.093s-1.64.055-2.84.438l-.22-.438s-2.418 0-3.06 1.093c0 0-1.092-.008-1.092 1.31 0 .484.27 1.69.384 2.186-.104.114-.167.267-.167.437 0 .363.292.656.656.656v.22a1.31 1.31 0 0 0 .806 1.21l.942.394v.704c0 .188-.12.355-.297.417l-.328.11c-.042-.108-.162-.165-.273-.13l-1.33.443a.65.65 0 0 0-.443.54l-.295 2.35c-.05.393.257.74.65.74h7.257c.396.001.7-.346.65-.738z"/><path fill="#9bce7b" d="M8.173 38.023h4.153v-4.03c-.092.026-.177.088-.232.172a2.18 2.18 0 0 1-3.689 0c-.055-.087-.14-.146-.232-.172v4.03z"/><path fill="#e3a172" d="M8.938 32.83v.724c0 .156-.082.3-.213.376 1.743.3 2.737-.98 2.827-1.1H8.938z"/><g fill="#5e352f"><path d="M6.752 30.153l6.776-4.81s.315.438.438 1.093c.254 1.358-.218 3.716-.218 3.716H6.752z"/><path d="M10.468 25.344s-2.418 0-3.06 1.093c0 0-1.093-.008-1.093 1.31 0 .615.437 2.405.437 2.405s4.653-2.068 6.776-4.81c0 0-1.64.055-2.84.438l-.22-.438z"/></g><g class="J"><path d="M13.3 29.716v-.437a1.09 1.09 0 0 0-1.092-1.093H8.282c-.604 0-1.093.5-1.093 1.093v.437c-.362 0-.655.293-.655.655s.292.656.655.656v.22c0 .53.32 1.008.807 1.2l1.413.588c.268.11.552.17.84.17s.574-.06.842-.17l1.413-.588a1.31 1.31 0 0 0 .805-1.21v-.22c.364 0 .656-.292.656-.656s-.293-.655-.656-.655z"/><path d="M12.217 28.842v-.656H8.282a1.22 1.22 0 0 0-.218.021c-.5.102-.875.542-.875 1.072v.437c-.362 0-.655.293-.655.655s.292.656.655.656v.22c0 .53.32 1.008.807 1.2l1.413.588a1.58 1.58 0 0 0 .21.073c-.623-.455-1.042-.854-1.284-1.117-.178-.188-.274-.44-.274-.7v-2.266c.69-.314 2.16-.773 4.156-.193z"/></g><path fill="#8abf69" d="M12.594 33.996a.43.43 0 0 0-.5.169 2.18 2.18 0 0 1-3.689 0c-.104-.167-.315-.232-.5-.17l-.07.023c.4.94 1.33 1.6 2.415 1.6s2.017-.66 2.416-1.6l-.07-.023z"/><g fill="#43a0c5"><path d="M8.938 38.023l-.614-3.9c-.022-.133-.156-.215-.285-.172l-1.33.443a.65.65 0 0 0-.442.54l-.295 2.35c-.05.393.257.74.65.74h2.316zm2.622 0l.615-3.9c.022-.133.156-.215.284-.172l1.33.443a.65.65 0 0 1 .442.54l.295 2.35c.05.393-.257.74-.65.74H11.56z"/><path d="M14.102 34.618c.07.1.118.2.13.316l.295 2.35c.05.393-.257.74-.65.74h-1.224v-1.257c0-.318.114-.628.325-.863l1.123-1.285z"/><path d="M14.512 37.137c-.43-.055-.765-.42-.765-.864 0-.368.23-.682.555-.812l.2 1.676z"/></g><path fill="#5e352f" d="M10.633 28.13c.67.12 1.41.45 1.803 1.148 0 0 .066-.637-.1-1.148h-1.713z"/><path fill="#43a0c5" d="M6.397 34.618c-.07.1-.118.2-.13.316l-.295 2.35c-.05.393.257.74.65.74h1.223v-1.257c0-.318-.114-.628-.324-.863l-1.124-1.285z"/><g fill="#2c3c4f"><path d="M34.064 29.042s-.337 3.273.45 5.486h-3.87v-5.486h3.42z"/><path d="M27.884 29.042s.337 3.273-.448 5.486h3.87v-5.486h-3.422z"/></g><path fill="#f8b54d" d="M32.706 33.63c0 1.48-.776 1.994-1.735 1.994s-1.735-.514-1.735-1.994.776-3.368 1.735-3.368 1.735 1.89 1.735 3.368z"/><path fill="#ffd15c" d="M34.163 28.898l-.003.144c-.065 1.9-1.466 3.414-3.185 3.414-1.46 0-2.694-1.097-3.07-2.593-.08-.308-.118-.63-.118-.965 0-1.964 1.427-3.558 3.188-3.558a2.66 2.66 0 0 1 .438.033 2.91 2.91 0 0 1 1.116.419c.977.608 1.635 1.77 1.635 3.106z"/><path fill="#2c3c4f" d="M32.53 25.795a2.94 2.94 0 0 0-1.116-.419c-.144-.022-.29-.033-.438-.033-1.762 0-3.188 1.59-3.188 3.56 0 .333.042.66.118.965 2.05-.43 3.24-1.607 3.908-2.612.475.953 1.336 1.637 2.344 1.79l.003-.144c.003-1.34-.655-2.502-1.63-3.107z"/><path fill="#f3715b" d="M33.164 34.3a3.6 3.6 0 0 1-2.19.753c-.838 0-1.61-.294-2.246-.795-.164.63-.596 1.158-1.303 1.257.62 1.5 1.97 2.543 3.545 2.543 1.25 0 2.36-.658 3.077-1.68-.716-.353-1-1.264-.883-2.078z"/><path fill="#e6e9ed" d="M36.5 37.855a8.12 8.12 0 0 1-1.221.91c.328-1.923.9-3.854.9-3.854l.33 2.944z"/><path fill="#cfd5e0" d="M36.17 34.912s-.563 1.93-.9 3.854c-1.254.77-2.727 1.21-4.304 1.21v-2.02c0-.008.01-.023.023-.053l.02-.043c.003-.006.006-.016.01-.023l.055-.124.053-.117.886-2.26.174-.507.095-.3.265-.998.15.042.998.306.675.238c.605.215 1.224.48 1.8.792z"/><path fill="#fff" d="M33.34 34.61l.448 1.086-2.815 2.255.157-.36c.34-.803 1.152-2.77 1.424-4.063a3.92 3.92 0 0 0 .088-.688l1.06 1.03.33.38-.694.36z"/><path fill="#cfd5e0" d="M26.67 38.765c-.436-.266-.845-.57-1.218-.9l.33-2.94.167.605.043.164.046.176.105.413.06.255.154.658.073.337.183.913.042.226a.5.5 0 0 0 .013.102z"/><path fill="#e6e9ed" d="M30.975 37.957v2.02c-1.578 0-3.05-.442-4.305-1.21l-.02-.102-.043-.226-.183-.913-.072-.337-.154-.658-.062-.255-.105-.413-.046-.176-.043-.164-.167-.605c.566-.313 1.185-.576 1.79-.803l.674-.24 1-.304.15-.042.026.123.108.43.053.183.08.263.097.3.174.504.272.736.085.227.072.18.06.15.072.176.092.23.236.563.052.117.056.124.053.122z"/><path fill="#fff" d="M28.608 34.61l-.45 1.1 2.658 2.13.158.125-.158-.363c-.34-.802-1.152-2.77-1.423-4.063a4.03 4.03 0 0 1-.089-.688l-1.06 1.03-.33.38.693.358z"/><path fill="#b6d771" d="M52.264 32.395l-2.102-.573h-1.914l-2.102.573a.72.72 0 0 0-.529.692V37.8a.24.24 0 0 0 .239.239h6.937v-4.952a.72.72 0 0 0-.529-.692z"/><path fill="#fad099" d="M48.01 30.864h2.39v1.913h-2.39z"/><path fill="#d7af7d" d="M48.01 31.532a2.6 2.6 0 0 0 2.391 0v-.667h-2.39v.667z"/><path fill="#ffe1b4" d="M51.357 28.233v-1.435h-4.305v1.435a.48.48 0 0 0-.479.479c0 .265.214.478.48.478 0 1.19.964 2.152 2.153 2.152s2.152-.963 2.152-2.152a.48.48 0 0 0 .479-.478.48.48 0 0 0-.479-.479z"/><path fill="#fad099" d="M48.248 29.2v-2.392h-1.196v1.435a.48.48 0 0 0-.479.479c0 .265.214.478.48.478 0 1.19.964 2.152 2.153 2.152a2.13 2.13 0 0 0 .597-.086 2.15 2.15 0 0 1-1.554-2.066z"/><path fill="#d7af7d" d="M49.205 30.387c-.253 0-.496-.12-.664-.328-.084-.102-.068-.253.035-.337s.253-.067.336.036c.158.194.428.194.585 0a.24.24 0 0 1 .336-.036c.103.084.12.234.035.337-.168.208-.4.328-.663.328z"/><path d="M48.248 29.2a.24.24 0 0 1-.239-.239v-.24a.24.24 0 0 1 .24-.24c.134 0 .24.106.24.24v.24a.24.24 0 0 1-.239.239zm1.914 0a.24.24 0 0 1-.24-.239v-.24a.24.24 0 1 1 .48.001v.24a.24.24 0 0 1-.239.239z" class="R"/><path fill="#d5a063" d="M50.814 28.006c.07.185.268.268.463.234.025-.005.053-.007.08-.007.087 0 .17.025.24.067v-1.502a.95.95 0 0 0-.489-.83c-.055-.343-.35-.605-.707-.605h-1.914c-.924 0-1.674.75-1.674 1.674V28.3c.07-.042.152-.067.24-.067.03 0 .06.003.09.01.233.046.466-.083.525-.313l.07-.616c.017-.14.15-.238.3-.206.44.103 1.383.26 2.365.003.134-.035.27.056.292.192l.095.57a.94.94 0 0 0 .036.134z"/><path d="M45.617 33.087V37.8a.24.24 0 0 0 .239.239h1.196v-3.416c0-.267-.088-.524-.252-.735l-.996-1.28c-.116.128-.187.297-.187.48zm7.175 0v4.952h-1.435v-3.416c0-.267.088-.524.252-.735l.996-1.28c.116.128.187.297.187.48z" fill="#a1ce58"/><path fill="#ce925a" d="M48.487 25.364c-.924 0-1.674.75-1.674 1.674V28.3c.07-.042.152-.067.24-.067.03 0 .06.003.09.01.233.046.466-.083.525-.313l.07-.616c.017-.14.15-.238.3-.206l.22.046v-.356c0-.792.643-1.435 1.435-1.435h-1.196z"/><path d="M48.5 35.17a.24.24 0 0 1-.241-.238c0-.133.106-.24.238-.24h.003a.24.24 0 0 1 .24.24c0 .134-.107.238-.24.238zm0 1.913a.24.24 0 0 1-.241-.24c0-.132.106-.238.238-.238h.003a.24.24 0 0 1 .24.238.24.24 0 0 1-.239.24zm0-.958a.24.24 0 0 1-.241-.239c0-.13.106-.238.238-.238h.003a.24.24 0 0 1 .239.238c0 .134-.107.24-.24.24z" fill="#ffdc64"/><path fill="#a1ce58" d="M48.965 32.778h.48v5.262h-.48z"/><path fill="#795647" d="M56.567 26.585a.76.76 0 0 0 .052-.265c0-.528-.535-.956-1.196-.956s-1.196.428-1.196.956c0 .092.022.18.052.265a2.63 2.63 0 0 0-1.487 2.366c0 1.19.963 2.153 2.152 2.153h.957c1.188 0 2.152-.964 2.152-2.153.001-1.042-.607-1.94-1.486-2.366z"/><path d="M54.466 27.995c0-.813.58-1.5 1.348-1.642-.128-.02-.258-.032-.39-.032-.145 0-.286.015-.424.037a.76.76 0 0 1-.054-.276c0-.284.157-.536.403-.712-.625.032-1.12.443-1.12.95 0 .092.022.18.052.265a2.63 2.63 0 0 0-1.487 2.366c0 1.19.963 2.153 2.152 2.153h.48V29.67l-.957-.957v-.718z" class="R"/><path d="M58.32 34.033l-1.64-.656c-.182-.072-.3-.248-.3-.444v-.87h-1.913v.87a.48.48 0 0 1-.301.444l-1.64.656c-.273.108-.45.373-.45.666v.95c0 .132.107.238.24.238V37.8a.24.24 0 0 0 .239.239h5.74a.24.24 0 0 0 .239-.239v-1.914a.24.24 0 0 0 .24-.238v-.95c0-.293-.178-.558-.45-.666z" class="B"/><path d="M52.314 35.648v.717h.24a.24.24 0 0 1 .24.24v1.435h.717v-2.392h-1.196zm6.218 0v.717h-.24a.24.24 0 0 0-.239.24v1.435h-.718v-2.392h1.196z" class="C"/><path fill="#ffdc64" d="M58.32 34.033l-1.36-.544c-.226.357-.738 1.04-1.538 1.442-.8-.4-1.312-1.085-1.54-1.442l-1.36.544c-.273.108-.45.373-.45.666v.95c0 .132.107.238.24.238h.957v2.153h4.305v-2.153h.956a.24.24 0 0 0 .24-.238v-.95c0-.293-.178-.558-.45-.666z"/><path d="M54.466 32.834c.297.117.62.183.957.183a2.58 2.58 0 0 0 .956-.183v-.773h-1.913v.773z" class="C"/><path d="M57.576 30.387c0-1.584-1.71-1.028-2.91-1.772-.11-.068-.254-.04-.325.068-.185.28-.563.737-1.055.747-.27.004-.494.205-.494.474v.004a.48.48 0 0 0 .479.478c0 .165.018.325.053.48.217.96 1.075 1.674 2.1 1.674s1.88-.715 2.1-1.674c.034-.154.053-.315.053-.478z" class="E"/><path d="M54.466 30.387v-1.794c-.05.016-.094.044-.125.1-.185.28-.563.737-1.055.747-.27.004-.494.205-.494.474v.004a.48.48 0 0 0 .479.479c0 .164.018.324.053.478.217.96 1.075 1.674 2.1 1.674a2.11 2.11 0 0 0 .598-.086c-.897-.26-1.555-1.085-1.555-2.066z" class="B"/><path d="M55.423 31.582a.86.86 0 0 1-.665-.328.24.24 0 0 1 .035-.336.24.24 0 0 1 .337.035c.158.195.428.195.585 0a.24.24 0 0 1 .336-.035c.103.083.118.233.035.336-.168.208-.4.328-.663.328z" class="C"/><path d="M56.38 30.387a.24.24 0 0 1-.239-.24v-.24a.24.24 0 0 1 .239-.239.24.24 0 0 1 .24.239v.24a.24.24 0 0 1-.24.24zm-1.914 0a.24.24 0 0 1-.239-.24v-.24a.24.24 0 0 1 .239-.239.24.24 0 0 1 .239.239v.24c.001.132-.106.24-.24.24z" class="R"/><path d="M53.27 35.607a.48.48 0 0 0-.141-.339l-.947-.946a.72.72 0 0 0-.108.377v.95c0 .132.107.238.24.238h.957v-.28zm4.306 0a.48.48 0 0 1 .14-.339l.947-.946a.7.7 0 0 1 .11.377v.95c0 .132-.107.238-.24.238h-.956v-.28z" fill="#ffc853"/><path d="M47.974 31.752l1.23 1.026-.77.58c-.104.077-.25.06-.33-.043l-.704-.878c-.065-.08-.07-.195-.012-.28l.234-.352a.24.24 0 0 1 .352-.051zm2.462 0l-1.23 1.026.77.58a.24.24 0 0 0 .331-.043l.703-.878c.065-.08.07-.195.012-.28l-.233-.352c-.082-.118-.246-.14-.354-.05z" fill="#cadf7e"/><path d="M73.222 34.312l.005.004v-.004l.002.002v-.002h.001l1.587-1.06v-.8a3.44 3.44 0 0 0-.344.271c-.696.628-1.38.522-1.38.522-.416.01-1-.416-1.263-.614l-.198-.146v.768l1.587 1.06zm.005.004l-.514.7z" fill="#f5c359"/><path fill="#647a8a" d="M71.54 27.406h.986a.88.88 0 0 0 .266-.041l.68-.246c.192-.073.402-.076.597-.007l1.04.365c.7.257.77.914.77.914v1.856s.093-.62.4-1.13c.077-.123.118-.265.118-.41v-1.602s-.1-.785-.87-.97c0 0 .313-.668-.5-.827H72.04c-1.096 0-1.984.89-1.984 1.984v1.177c0 .255.086.503.245.702.125.156.257.402.276.758V28.37c.192-.864.963-.964.963-.964z"/><path fill="#fcd463" d="M73.096 33.246s.683.106 1.38-.522a3.2 3.2 0 0 1 .344-.271l.035-.023c.31-.208.9-.782 1.025-2.182v-1.856s-.07-.657-.77-.914l-1.04-.365c-.194-.068-.404-.065-.597.007l-.68.246a.88.88 0 0 1-.266.041h-.985s-.77.1-.964.964v1.92s.033 1.517 1.037 2.182l.022.014.198.146c.253.197.847.622 1.263.613z"/><path d="M73.77 35.056l-.277.397.255 1.607.64-1.162zm-1.062 2.012l.256-1.615-.278-.4-.622.846zm.005-2.052l-.022.028.536-.726v-.002z" fill="#d5d6dc"/><g fill="#e66454"><path d="M73.748 37.06l-.255-1.607.277-.397-.543-.74v.002l-.536.726-.005.008.278.4-.256 1.615.52.942.52-.948zm-.518.956l.05-.05-.05.047zm-.005-.002l-.05-.047.05.05z"/><path d="M73.224 38.016l.003.004.002-.004-.002-.002z"/><path d="M73.23 34.312z"/><path d="M73.227 34.312v.004l.002-.002z"/></g><path d="M73.23 34.312l-.004.004.543.74.62.842 1.286-2.34-.857-.305zm-.544.74l.027-.036.514-.7-.005-.004-1.587-1.06-.857.305 1.286 2.34z" fill="#e1e6e9"/><g fill="#3b566a"><path d="M79.6 37.33l-.29-1.74a1.31 1.31 0 0 0-.849-1.022l-2.788-1.01.74 1.486-.927.014.314.6-2.523 2.31-.05.05v.004h5.784c.367-.002.645-.33.586-.69z"/><path d="M73.23 38.016l-.002.004h.004z"/></g><path d="M73.748 37.062l-.52.948.001.004.05-.047 2.524-2.3-.315-.6.927-.014-.74-1.486-1.286 2.34zm-.524.954l.003-.002h-.002l-.001.002z" fill="#314859"/><path fill="#3b566a" d="M73.224 38.016l-.05-.05-2.524-2.31.314-.6-.927-.014.74-1.486L68 34.568c-.447.16-.772.552-.85 1.022l-.287 1.74a.59.59 0 0 0 .585.689l5.787-.002z"/><path fill="#314859" d="M73.23 38.016l-.001-.002-.001-.004-2.45-4.452-.74 1.486.927.014-.315.6 2.582 2.363z"/><path d="M96.53 34.294v-1.53h-3.935v1.53l1.968 1.748z" class="B"/><path d="M99.573 35.01l-2.706-.635c-.04-.01-.078-.026-.112-.047l-2.19 1.278-2.106-1.34a.44.44 0 0 1-.199.108l-2.706.635c-.396.094-.674.446-.674.853v1.712a.44.44 0 0 0 .438.438H99.8a.44.44 0 0 0 .438-.438V35.86a.88.88 0 0 0-.675-.852z" class="K"/><path d="M92.595 32.764v1.614c2.48.894 3.936-1.343 3.936-1.343v-.27h-3.936z" class="C"/><path d="M91.72 27.735l.19 4.192c.018.39.2.754.523.99l.904.68a1.31 1.31 0 0 0 .786.262H95c.283 0 .56-.092.787-.262l.903-.68a1.31 1.31 0 0 0 .524-.989l.2-4.192H91.72z" class="E"/><path d="M93.907 28.61c.874 0 2.186-.22 2.497-.875H91.72l.19 4.192c.018.39.2.754.523.99l.904.68a1.31 1.31 0 0 0 .786.262h.438c-.438 0-1.313-.874-1.313-1.968v-2.624c.002-.217.22-.655.658-.655z" class="B"/><path d="M90.483 36.592l-1.417-1.273a.88.88 0 0 0-.188.543v1.712c0 .24.194.438.437.438h1.53v-.605a1.09 1.09 0 0 0-.363-.815zm8.16 0l1.417-1.273a.87.87 0 0 1 .19.543v1.712a.44.44 0 0 1-.438.438h-1.53v-.605c-.001-.313.13-.608.362-.815z" class="F"/><path d="M95.108 38.01h-1.09l.136-1.97h.82z" class="S"/><path d="M95.108 35.606h-1.092v.41c0 .135.108.244.244.244h.604c.136 0 .244-.11.244-.244v-.41z" class="T"/><path d="M92.564 33.808l2 1.798s-.56.282-1.25.853a.28.28 0 0 1-.435-.1l-.94-2.066.298-.446c.075-.1.23-.13.328-.04zm3.998 0l-1.998 1.798s.56.282 1.25.853a.28.28 0 0 0 .434-.099l.94-2.066-.298-.446c-.074-.1-.23-.13-.327-.04z" class="F"/><path d="M95.89 26.287l.204 1.448c.937.187 1.07 1.656 1.1 2.075.004.076.027.15.07.213l.356.554s-.122-.915.438-1.53c0 0 .19-3.635-2.157-2.76z" class="H"/><path d="M97.828 30.484l-.247.987c-.03.117-.135.2-.254.2-.133 0-.245-.1-.263-.23l-.124-1.01c-.034-.27.177-.51.448-.51.296 0 .512.277.44.563z" class="E"/><path d="M91.93 25.896l.324.22c-1.462 1.08-1.19 2.93-1.19 2.93.438.437.438 1.53.438 1.53l.437-.438s-.168-1.263.656-1.75c.766-.45 1.435-.218 2.117-.218 1.833 0 2.345-.7 2.256-1.53-.046-.435-.71-1.34-2.404-1.312-.686.013-1.97.22-2.635.567z" class="D"/><path d="M91.803 27.98s-.232-.915.45-1.865c-1.462 1.08-1.19 2.93-1.19 2.93.438.437.438 1.53.438 1.53l.437-.438s-.168-1.263.656-1.75c.766-.45 1.435-.22 2.117-.22a5.51 5.51 0 0 0 .788-.054c-1.41.05-2.24-1.02-3.698-.136z" class="I"/><path d="M91.297 30.484l.246.987c.03.117.135.2.256.2.132 0 .244-.1.26-.23l.127-1.01c.033-.27-.177-.51-.45-.51-.294 0-.5.277-.44.563z" class="B"/><path d="M97.405 37.574h-1.53a.22.22 0 0 0-.219.219v.22h1.968v-.22c0-.122-.097-.22-.218-.22z" class="F"/><path d="M35.474 58.214l-.02-.18a.13.13 0 0 0-.143-.115l-.01.002-.192-1.54c-.042-.335-.272-.616-.593-.723l-1.07-.356c-.146-.05-.308-.02-.42.078l-.315-.105a.44.44 0 0 1-.3-.416v-.707l.944-.393c.5-.204.81-.683.81-1.215v-.22c.364 0 .658-.294.658-.658a.65.65 0 0 0-.14-.403c.19-.48.623-1.857.14-3.542 0 0-.08-.058-.225-.145-.04-.506-.214-.732-.214-.732l-.8.267c-.697-.252-1.677-.486-2.926-.486 0 0-.144.15-.44.22 0 0-.747-.165-1.535-.22l-.438 1.097s-1.096-.01-1.096 1.315c0 .486.27 1.696.386 2.192a.66.66 0 0 0-.167.438c0 .364.294.658.658.658v.22c0 .532.32 1.01.8 1.215l.944.393v.707a.44.44 0 0 1-.3.416l-.315.105c-.113-.097-.275-.128-.422-.078l-1.07.356c-.32.106-.55.388-.593.723l-.192 1.54-.012-.002c-.07-.008-.134.044-.142.115l-.02.18c-.008.07.043.135.114.143l.32.035v.51a.44.44 0 0 0 .438.438H34.6a.44.44 0 0 0 .438-.438v-.51l.32-.035a.13.13 0 0 0 .116-.144z" class="J"/><path fill="#f5b97a" d="M32.41 54.134h-2.63v.725c0 .158-.087.298-.22.375 1.838.322 2.85-1.1 2.85-1.1z"/><path d="M34.162 51v-.438c0-.605-.49-1.096-1.096-1.096H29.12c-.605 0-1.096.5-1.096 1.096V51a.66.66 0 0 0-.658.657c0 .364.294.658.658.658v.22c0 .532.32 1.01.8 1.215l1.417.6a2.2 2.2 0 0 0 1.686 0l1.417-.6c.5-.204.81-.683.81-1.215v-.22c.364 0 .658-.294.658-.658a.66.66 0 0 0-.659-.657z" class="U"/><path fill="#f16574" d="M33.505 59.34v-1.097h1.836l-.233-1.863c-.042-.335-.272-.616-.593-.723l-1.07-.356a.43.43 0 0 0-.501.17 2.19 2.19 0 0 1-1.851 1.019c-.78 0-1.462-.406-1.85-1.02-.106-.165-.315-.23-.502-.17l-1.07.356c-.32.106-.55.388-.593.723l-.207 1.67 1.812.002v1.29h4.823z"/><g fill="#634034"><use xlink:href="#D"/><use xlink:href="#D" x="3.068"/></g><path fill="#e4b17c" d="M31.093 53.428c-.4 0-.754-.097-1-.264a.22.22 0 0 1-.058-.305.22.22 0 0 1 .304-.058c.172.117.454.188.754.188s.582-.07.754-.188c.1-.068.236-.042.304.058a.22.22 0 0 1-.058.305c-.245.168-.6.264-1 .264z"/><path d="M29.175 53.305c-.178-.2-.274-.442-.274-.703v-1.935c.605-.328 2.374-1.19 4.165-1.19H29.12a1.05 1.05 0 0 0-.219.024v-.003c-.5.1-.877.544-.877 1.074v.438a.66.66 0 0 0-.658.657c0 .364.294.658.658.658v.22c0 .532.32 1.01.8 1.215l1.417.6c.07.03.14.054.212.076a9.11 9.11 0 0 1-1.288-1.119z" class="J"/><path fill="#f05668" d="M28.682 58.41v-.496c0-.21-.076-.415-.214-.574l-1.206-1.393c-.097.123-.163.272-.183.434l-.23 1.833c.348.02 1.275.128 1.832.196z"/><path fill="#be455b" d="M28.682 58.122l-1.807-.2c-.07-.008-.134.044-.142.115l-.02.18c-.008.07.043.135.114.143l1.855.206v-.442z"/><path fill="#f05668" d="M33.505 58.41v-.496c0-.21.076-.415.214-.574l1.206-1.393c.098.123.163.272.183.434l.23 1.833c-.35.02-1.276.128-1.832.196z"/><path fill="#be455b" d="M33.505 58.122l1.807-.2a.13.13 0 0 1 .143.115l.02.18c.008.07-.043.135-.114.143l-1.855.206v-.442z"/><path d="M34.82 47.722s-.08-.058-.225-.145c-.04-.506-.214-.732-.214-.732l-.8.267c-.697-.252-1.677-.486-2.926-.486 0 0-.144.15-.44.22 0 0-.747-.165-1.535-.22l-.438 1.097s-1.096-.01-1.096 1.315c0 .486.272 1.702.387 2.195.12-.136.294-.223.5-.223v-.438c0-.6.482-1.086 1.08-1.095-.168.365-.204.656-.204.656.548-.365 1.26-.657 2.192-.657h1.973c.605 0 1.096.5 1.096 1.096V51a.66.66 0 0 1 .518.256c.2-.478.624-1.857.14-3.544z" class="L"/><path d="M34.38 46.845l-.8.267c-.697-.252-1.677-.486-2.926-.486 0 0-.144.15-.44.22 0 0-.747-.165-1.535-.22l-.438 1.097s-1.096-.01-1.096 1.315c0 .486.272 1.702.387 2.195.12-.136.294-.223.5-.223v-.438c0-.572.44-1.036 1-1.087-.06.164-.122.397-.122.648.863-1.096 2.09-1.49 3.07-1.754.973-.26 1.097-.657 1.097-.657s.957-.055 1.313-.877z" class="M"/><path d="M56.413 57.935l-.042-.144c-.02-.07-.088-.11-.158-.103l-.146-1.1c-.05-.36-.273-.674-.6-.838l-.473-.236c-.072-.036-.154-.003-.188.066l-.947-.35a.44.44 0 0 1-.3-.417v-.7l.947-.394a1.32 1.32 0 0 0 .812-1.218v-.22a.66.66 0 1 0 0-1.32v-.44c0-.607-.492-1.54-1.1-1.54H50.26c-.607 0-1.1.932-1.1 1.54v.44a.66.66 0 1 0 0 1.32v.22a1.32 1.32 0 0 0 .812 1.218l.947.394v.7a.44.44 0 0 1-.301.417l-.928.342c-.035-.065-.114-.095-.184-.06l-.432.216c-.37.186-.593.5-.64.86l-.146 1.1c-.07-.01-.138.033-.158.103l-.042.144c-.023.077.02.158.098.18l.313.092v.664a.44.44 0 0 0 .44.439h6.597a.44.44 0 0 0 .44-.439v-.657l.334-.1c.08-.02.125-.102.103-.18z" class="U"/><path d="M53.56 54.087h-2.64v.728a.44.44 0 0 1-.213.377c1.84.317 2.852-1.105 2.852-1.105z" class="J"/><path fill="#8db9e3" d="M56.242 57.907l-.175-1.318c-.05-.36-.273-.674-.6-.838l-.473-.236c-.08-.04-.174.006-.198.093a2.64 2.64 0 0 1-5.092-.001.14.14 0 0 0-.197-.093l-.432.216c-.37.186-.593.5-.64.86l-.18 1.343 1.576.5v.88h4.837v-.88l1.573-.524z"/><path d="M49.827 58.364a1.32 1.32 0 0 0-.258-.726l-1.032-1.376c-.05.103-.085.212-.1.326l-.175 1.308 1.565.468z" class="N"/><path fill="#5088bc" d="M48.1 57.935c-.023.077.02.158.098.18l1.644.48v-.164a1.31 1.31 0 0 0-.041-.306l-1.48-.43c-.077-.023-.158.02-.18.098l-.04.144z"/><path d="M54.676 58.364a1.32 1.32 0 0 1 .258-.726l1.032-1.376c.05.103.085.212.1.326l.173 1.308-1.564.468z" class="N"/><path fill="#5088bc" d="M56.413 57.935c.022.077-.022.158-.1.18l-1.644.48v-.164a1.31 1.31 0 0 1 .041-.306l1.48-.43c.077-.023.157.02.18.098l.042.144z"/><path d="M48.722 50.514c-.66 0-1.98.247-1.98 2.2s-.44 4.397-.44 4.397 2.2-.232 2.2-2.86c0-2.446.44-2.858.44-2.858l-.22-.88z" class="L"/><path d="M48.5 54.25c0-2.446.44-2.858.44-2.858l-.44-.66c-.254.034-1.227.04-1.1 1.76s.77 3.463-1.1 4.617c.001 0 2.2-.233 2.2-2.86z" class="M"/><path d="M48.982 51.194l-.274-.755a.22.22 0 0 0-.281-.132.22.22 0 0 0-.132.282l.273.754a.22.22 0 0 0 .414-.149z" class="N"/><path d="M55.76 50.514c.66 0 1.98.247 1.98 2.2s.44 4.397.44 4.397-2.2-.232-2.2-2.86c0-2.446-.44-2.858-.44-2.858l.22-.88z" class="L"/><path d="M55.98 54.25c0-2.446-.44-2.858-.44-2.858l.44-.66c.254.034 1.227.04 1.1 1.76s-.768 3.463 1.1 4.617c0 0-2.2-.233-2.2-2.86z" class="M"/><path d="M55.498 51.194l.274-.755a.22.22 0 0 1 .281-.132.22.22 0 0 1 .132.282l-.274.754a.22.22 0 0 1-.282.132.22.22 0 0 1-.131-.281z" class="N"/><path fill="#ffe1b2" d="M55.32 50.954v-.44c0-.607-.492-1.54-1.1-1.54H50.26c-.607 0-1.1.932-1.1 1.54v.44a.66.66 0 0 0-.66.659.66.66 0 0 0 .66.66v.22a1.32 1.32 0 0 0 .812 1.218l1.42.592c.268.11.556.168.846.168s.578-.057.846-.168l1.42-.592a1.32 1.32 0 0 0 .812-1.218v-.22a.66.66 0 1 0 0-1.32z"/><path d="M50.7 51.833a.22.22 0 0 1-.22-.22v-.22c0-.12.1-.22.22-.22s.22.1.22.22v.22a.22.22 0 0 1-.22.22zm3.08 0a.22.22 0 0 1-.219-.22v-.22c0-.12.1-.22.22-.22a.22.22 0 0 1 .22.22v.22a.22.22 0 0 1-.22.22z" fill="#634034"/><path fill="#e4b17c" d="M52.24 53.378c-.39 0-.757-.097-1.003-.264a.22.22 0 1 1 .248-.364c.173.117.455.188.756.188s.583-.07.756-.188a.22.22 0 0 1 .306.058c.068.1.042.237-.058.306-.248.168-.614.264-1.005.264z"/><path d="M52.05 48.947c-.038 1.188-2.887 2.007-2.887 2.007a.66.66 0 1 0 0 1.32v.22a1.32 1.32 0 0 0 .812 1.218l1.42.592.212.075a9.39 9.39 0 0 1-1.291-1.123 1.03 1.03 0 0 1-.274-.705v-1.23c.63-.22 2.396-.94 2.418-2.127l-.003-.248h-.408z" class="U"/><path d="M53.34 46.555c-.715 0-1.1.22-1.1.22s-.385-.22-1.1-.22-3.427 1.377-2.42 4.565c0 0 3.52-.625 3.52-2.146 0 1.52 3.52 2.146 3.52 2.146 1.008-3.188-1.705-4.565-2.42-4.565z" class="L"/><path d="M52.24 46.776s-.385-.22-1.1-.22-3.427 1.377-2.42 4.565c0 0 .426-.076.98-.24-.62-2.86 1.857-4.103 2.538-4.105z" class="M"/><g fill="#f68b55"><use xlink:href="#E"/><use xlink:href="#E" x="-1.76"/><use xlink:href="#F"/></g><g fill="#ffc94b"><use xlink:href="#E" x="0.88"/><use xlink:href="#E" x="-0.88"/><use xlink:href="#E" x="0.44" y="-0.66"/><use xlink:href="#E" x="-1.32" y="-0.66"/><use xlink:href="#E" x="2.2" y="-0.66"/></g><g fill="#f68b55"><use xlink:href="#F" x="-3.958" y="-0.66"/><path d="M53.56 57.99a.22.22 0 0 1 0 .44.22.22 0 1 1 0-.44z"/><use xlink:href="#E" x="-0.44" y="-0.66"/></g><path d="M76.334 46.656h1.385c.34 0 .65.203.79.518l.087.206h.418a1.28 1.28 0 0 1 1.281 1.28v4.715a.91.91 0 0 1-.911.91h-4.6a.91.91 0 0 1-.911-.91v-4.26a2.46 2.46 0 0 1 2.461-2.46z" class="V"/><path fill="#f9dc6b" d="M72.03 47.387l-2.622-.624c-.28-.066-.574.017-.778.22l-.744.744h-.317a.83.83 0 0 0-.828.829v1.35c.05.398.396 1.557.396 1.557h5.595l1.047-4.15a.23.23 0 0 0-.365-.233c-.39.307-.9.42-1.384.305z"/><path fill="#42b1e5" d="M80.115 56.488v2.79h-5.063v-2.606H67.53v-1.676h11.094a1.49 1.49 0 0 1 1.491 1.491z"/><path d="M78.624 54.997h-.638a1.49 1.49 0 0 1 1.491 1.491v2.8h.638v-2.8a1.49 1.49 0 0 0-1.491-1.491zm-4.84 1.675v-.185a1.49 1.49 0 0 0-1.489-1.491h-3.084a1.49 1.49 0 0 0-1.491 1.491v.185h6.064z" fill="#1b88c4"/><path fill="#f2a178" d="M76.185 53.5v1.81c0 .496.9.998.9.998s.898-.502.898-.998V53.5h-1.797z"/><path d="M80.223 51.336v.265a.56.56 0 0 1-.56.559h-.19c-.074 1.46-1.43 2.473-2.756 2.24-1.108-.17-1.966-1.1-2.024-2.24h-.19a.56.56 0 0 1-.559-.559v-.265a.56.56 0 0 1 .559-.559h.186v-1.214l.002-.097c.328.063.667.097 1.015.097a5.31 5.31 0 0 0 2.869-.835 5.23 5.23 0 0 0 .523-.379c.232.33.378.76.378 1.214v1.214h.187a.56.56 0 0 1 .558.559z" class="W"/><path d="M77.084 53.037c-.313 0-.605-.122-.828-.344a1.13 1.13 0 0 1-.257-.387.202.202 0 0 1 .373-.153.79.79 0 0 0 .168.253.76.76 0 0 0 .544.226.76.76 0 0 0 .71-.48.2.2 0 0 1 .263-.11c.104.04.153.16.112.263a1.17 1.17 0 0 1-1.086.731zm-1.2-1.903c-.1 0-.2-.1-.2-.2v-.116c0-.1.1-.203.2-.203s.202.092.202.203v.116a.2.2 0 0 1-.202.201zm2.397 0c-.112 0-.202-.1-.202-.2v-.116c0-.1.1-.203.202-.203s.203.092.203.203v.116c0 .1-.1.2-.203.2z" class="V"/><path fill="#f15c5c" d="M72.965 56.488v2.79h-6.063v-2.79a1.49 1.49 0 0 1 1.491-1.491h3.08a1.49 1.49 0 0 1 1.491 1.491z"/><path fill="#ce3b4d" d="M71.474 54.997h-.64a1.49 1.49 0 0 1 1.491 1.491v2.79h.64v-2.79a1.49 1.49 0 0 0-1.491-1.491z"/><path fill="#f2a178" d="M69.035 53.5v1.81a.9.9 0 0 0 .897.898c.497 0 .898-.402.898-.898V53.5h-1.795z"/><path d="M73.073 51.336v.265a.56.56 0 0 1-.56.559h-.2a2.38 2.38 0 0 1-.409 1.22c-.45.694-1.38 1.167-2.347 1.02-1.108-.17-1.966-1.1-2.024-2.24h-.2a.56.56 0 0 1-.558-.559v-.265a.56.56 0 0 1 .558-.559h.187v-.882c.642-.042.85-.24.85-.873 0 0 .817 1.457 3.205 1.02.23-.04.475-.1.732-.18v.912h.187c.307.002.56.25.56.56z" class="W"/><path d="M69.933 53.037a1.16 1.16 0 0 1-.828-.344c-.112-.1-.198-.24-.257-.387a.202.202 0 0 1 .373-.153.78.78 0 0 0 .169.253.76.76 0 0 0 1.253-.254.19.19 0 0 1 .264-.1c.104.053.153.16.112.263a1.17 1.17 0 0 1-1.087.731zm-1.2-1.903c-.1 0-.2-.1-.2-.2v-.116a.21.21 0 0 1 .2-.203c.1 0 .203.092.203.203v.116a.2.2 0 0 1-.203.201zm2.398 0c-.112 0-.202-.1-.202-.2v-.116c0-.1.1-.203.202-.203a.21.21 0 0 1 .202.203v.116c0 .1-.1.2-.202.2z" class="V"/><path d="M67.504 56.914h-.506a.52.52 0 0 1-.521-.52V55.26a.52.52 0 0 1 .521-.52h.506c.21 0 .383.17.383.383v1.4c0 .21-.172.382-.383.382z" class="W"/><path d="M72.165 57.672v1.605h-.404v-1.605c0-.1.1-.2.203-.2s.2.1.2.2zm-4.06 0v1.605H67.7v-1.605c0-.1.1-.2.202-.2a.21.21 0 0 1 .203.2z" fill="#ce3b4d"/><path fill="#1b88c4" d="M79.317 57.672v1.605h-.404v-1.605a.2.2 0 0 1 .202-.201c.112 0 .202.1.202.2z"/><path d="M110.297 28.565c-2.614 0-2.325 3.18-2.313 5.485.001.087.047.166.12.212a4.33 4.33 0 0 0 2.192.584c1.108 0 1.904-.41 2.194-.584.074-.046.12-.125.12-.212.012-2.304.3-5.485-2.315-5.485z" class="D"/><path d="M110.13 28.572c-2.433.137-2.157 3.227-2.146 5.48.001.087.047.166.12.212a4.33 4.33 0 0 0 2.192.584l.66-4.628" class="I"/><path d="M110.297 28.565c-1.486 0-1.6 1.798-1.6 1.798.857-.145 1.384.216 2.25-.145l-.66 4.628c1.108 0 1.904-.41 2.194-.584.074-.046.12-.125.12-.212.012-2.304.3-5.485-2.315-5.485z" class="D"/><path d="M112.612 34.05c.01-1.98.224-4.606-1.376-5.306-.027.145-.078.55.053.812.33.66.66.66.99 1.156.332 1.818-.63 3.748-.95 4 .567-.134.973-.347 1.162-.46a.25.25 0 0 0 .121-.211z" class="H"/><path d="M112.803 34.554l-1.476-.616a.33.33 0 0 1-.203-.305v-.4h-1.652v.4a.33.33 0 0 1-.204.305l-1.475.616a.49.49 0 0 0-.305.458v.66c0 .184.148.33.33.33h4.957a.33.33 0 0 0 .331-.329v-.66a.49.49 0 0 0-.304-.458z" class="B"/><path d="M112.803 34.554l-1.426-.596-1.08.465-1.078-.465-1.426.596a.49.49 0 0 0-.305.458v.66c0 .184.148.33.33.33h4.957a.33.33 0 0 0 .331-.329v-.66a.49.49 0 0 0-.304-.458z" class="K"/><path d="M111.124 33.234h-1.652v.4a.33.33 0 0 1-.204.305l-.23.096c1.762.45 2.086-.8 2.086-.8z" class="C"/><g class="F"><path d="M108.294 35.192l-.663-.527a.49.49 0 0 0-.143.348v.66a.33.33 0 0 0 .33.33h.66v-.42a.5.5 0 0 0-.186-.389zm4.813.48v-.66a.5.5 0 0 0-.141-.346l-.665.525a.5.5 0 0 0-.187.389V36h.66a.33.33 0 0 0 .332-.329zm-2.785 0h-.05c-.078 0-.142-.064-.142-.142v-1.105h.33v1.105a.14.14 0 0 1-.14.142z"/><path d="M110.297 34.423l-.945-.707c-.06-.048-.146-.033-.19.03l-.188.28.58.813c.044.062.13.073.2.026l.552-.443z"/><path d="M110.297 34.423l.946-.707c.062-.048.147-.033.19.03l.188.28-.58.813c-.044.062-.13.073-.19.026l-.554-.443z"/></g><path d="M111.124 30.053c-.827.826-2.448.165-2.448 1.488l.104.974a.66.66 0 0 0 .337.518l.94.52a.49.49 0 0 0 .483 0l.94-.52a.66.66 0 0 0 .338-.518l.117-1.157a1.85 1.85 0 0 0 .009-.247c-.063-.423-.655-.728-.82-1.058z" class="E"/><path d="M108.676 31.54l.104.974a.66.66 0 0 0 .337.518l.94.52c.104.06.224.074.337.052 0 0-.474-.144-.756-.908-.087-.234-.207-1.475-.104-1.625.204-.3 1.342-.332 1.68-.886l-.047-.062c-.018-.026-.03-.048-.042-.07-.827.825-2.448.164-2.448 1.487z" class="B"/><path d="M111.504 35.672h-.43a.28.28 0 0 0-.282.281V36h.992v-.048a.28.28 0 0 0-.281-.281z" class="F"/><path d="M121.6 33.785v-.908h-2.335v.908l1.167 1.037z" class="B"/><path d="M123.394 34.21l-1.604-.377c-.025-.008-.047-.017-.067-.028l-1.3.76-1.25-.795c-.032.03-.072.053-.117.064l-1.605.377a.52.52 0 0 0-.399.504v1.016a.26.26 0 0 0 .26.26h6.224c.144 0 .26-.116.26-.26v-1.016c-.003-.24-.168-.45-.402-.504z" class="K"/><path d="M119.255 32.877v.957c1.47.53 2.335-.797 2.335-.797v-.16h-2.335z" class="C"/><path d="M118.736 29.894l.113 2.486a.78.78 0 0 0 .311.588l.536.4c.135.102.3.157.466.157h.52a.78.78 0 0 0 .467-.157l.536-.4c.186-.14.3-.356.31-.588l.112-2.486h-3.372z" class="E"/><path d="M120.033 30.413c.518 0 1.297-.13 1.48-.52h-2.778l.113 2.486a.78.78 0 0 0 .311.588l.536.4c.135.102.3.157.466.157h.26c-.26 0-.777-.52-.777-1.17V30.8c0-.128.128-.387.388-.387z" class="B"/><path d="M122.842 35.147l.84-.755a.52.52 0 0 1 .11.321v1.016c0 .144-.115.26-.26.26h-.908v-.36c0-.184.078-.36.216-.483z" class="F"/><path d="M120.747 35.99h-.65l.082-1.167h.486z" class="S"/><path d="M120.747 34.563h-.65v.074c0 .174.14.314.314.314h.02c.173 0 .315-.14.315-.314v-.074z" class="T"/><path d="M119.236 33.495l1.186 1.068s-.33.168-.742.505c-.084.07-.2.042-.257-.058l-.558-1.226.176-.265c.045-.065.137-.076.195-.024zm2.37 0l-1.186 1.068s.332.168.74.505c.085.07.212.042.26-.058l.557-1.226-.177-.265a.13.13 0 0 0-.194-.024z" class="F"/><path d="M121.21 29.035l.12.86c.555.11.635.982.647 1.23a.26.26 0 0 0 .04.127l.212.328s-.072-.543.26-.908c-.001 0 .113-2.156-1.28-1.637z" class="H"/><path d="M122.36 31.525l-.147.585c-.017.07-.08.117-.15.117-.078 0-.146-.06-.155-.136l-.075-.6a.27.27 0 0 1 .267-.301.27.27 0 0 1 .26.334z" class="E"/><path d="M118.86 28.804l.19.13c-.867.64-.705 1.738-.705 1.738.26.26.26.908.26.908l.258-.26s-.1-.748.4-1.037c.453-.268.852-.13 1.256-.13 1.086 0 1.4-.41 1.338-.907-.028-.258-.42-.795-1.427-.778-.405.007-1.167.13-1.562.336z" class="D"/><path d="M118.785 30.04s-.138-.542.267-1.105c-.867.64-.705 1.738-.705 1.738.26.26.26.908.26.908l.258-.26s-.1-.748.4-1.037c.453-.268.852-.13 1.256-.13.177 0 .33-.012.468-.03-.837.028-1.33-.606-2.195-.083z" class="I"/><path d="M118.485 31.525l.146.585c.02.07.08.117.152.117.078 0 .145-.06.154-.136l.075-.6c.02-.16-.105-.3-.267-.3h-.001c-.174.001-.3.164-.26.334z" class="B"/><path d="M121.98 35.73h-.648a.26.26 0 0 0-.26.26h1.166a.26.26 0 0 0-.258-.26z" class="F"/><path d="M115.646 25.313c-4.446 0-3.953 5.408-3.934 9.327a.42.42 0 0 0 .205.358c.493.297 1.847.99 3.73.99s3.236-.694 3.73-.99a.42.42 0 0 0 .205-.358c.02-3.92.513-9.327-3.934-9.327z" class="D"/><path d="M115.358 25.324c-4.135.232-3.665 5.483-3.646 9.315a.42.42 0 0 0 .205.358c.493.297 1.847.99 3.73.99l1.124-7.866" class="I"/><path d="M115.646 25.313c-2.53 0-2.704 3.056-2.704 3.056 1.458-.246 2.354.368 3.828-.246l-1.124 7.866c1.883 0 3.236-.694 3.73-.99a.42.42 0 0 0 .205-.356c.02-3.922.513-9.33-3.934-9.33z" class="D"/><path d="M119.58 34.64c.017-3.37.38-7.833-2.338-9.023-.047.247-.133.934.09 1.38.562 1.125 1.123 1.125 1.686 1.967.562 3.09-1.073 6.37-1.617 6.816.962-.23 1.652-.592 1.974-.784a.42.42 0 0 0 .204-.356z" class="H"/><path d="M119.904 35.492l-2.508-1.045c-.21-.087-.346-.293-.346-.52v-.678h-2.8v.678c0 .226-.137.432-.346.52l-2.507 1.045c-.314.132-.52.438-.52.777v1.125a.56.56 0 0 0 .562.562h8.43a.56.56 0 0 0 .562-.562V36.27a.84.84 0 0 0-.517-.777z" class="B"/><path fill="#b6e1f8" d="M119.904 35.492l-2.425-1-1.834.79-1.832-.79-2.425 1c-.314.132-.52.438-.52.777v1.125a.56.56 0 0 0 .562.562h8.43a.56.56 0 0 0 .562-.562V36.27c0-.34-.205-.645-.518-.777z"/><path d="M117.05 33.25h-2.8v.678c0 .226-.137.432-.346.52l-.392.163c2.997.765 3.548-1.36 3.548-1.36z" class="C"/><g class="O"><path d="M112.24 36.578l-1.127-.896c-.152.154-.242.363-.242.587v1.125a.56.56 0 0 0 .562.562h1.124v-.72a.85.85 0 0 0-.317-.657zm8.182.816V36.27a.84.84 0 0 0-.237-.583l-1.133.892a.85.85 0 0 0-.315.657v.72h1.124a.56.56 0 0 0 .561-.562zm-4.776 0a.28.28 0 0 1-.281-.281v-1.84h.563v1.84a.28.28 0 0 1-.282.28z"/><path d="M115.646 35.273l-1.607-1.206c-.103-.078-.25-.052-.323.056l-.316.476.986 1.38c.073.104.222.124.322.044l.938-.75zm0 0l1.607-1.206c.104-.078.25-.052.323.056l.317.476-.985 1.38c-.075.104-.224.124-.324.044l-.938-.75z"/></g><path d="M117.05 27.84c-1.405 1.405-4.16.282-4.16 2.53l.174 1.656a1.12 1.12 0 0 0 .573.88l1.6.9c.254.14.564.14.818 0l1.6-.9c.325-.18.54-.5.573-.88l.2-1.967c.015-.14.017-.28.013-.42-.106-.716-1.11-1.236-1.392-1.798z" class="E"/><path d="M112.9 30.37l.174 1.656a1.12 1.12 0 0 0 .573.88l1.6.9a.83.83 0 0 0 .573.084s-.808-.243-1.288-1.542c-.146-.4-.352-2.506-.175-2.763.348-.5 2.283-.563 2.854-1.507l-.077-.104c-.032-.046-.056-.084-.073-.122-1.405 1.404-4.16.28-4.16 2.528z" class="B"/><path d="M117.894 37.394h-1.124a.28.28 0 0 0-.28.28v.28h1.686v-.28c-.001-.154-.127-.28-.282-.28z" class="O"/><path d="M9.145 55.29v-1.346H5.7v1.346l1.727 1.535z" class="B"/><path d="M11.816 55.917l-2.376-.56c-.035-.01-.068-.02-.1-.04L7.417 56.44l-1.85-1.177a.39.39 0 0 1-.175.094l-2.375.56a.77.77 0 0 0-.593.747v1.505c0 .21.172.383.384.383h9.214c.213 0 .385-.172.385-.383v-1.505a.77.77 0 0 0-.592-.747z" class="K"/><path d="M5.7 53.943v1.418c2.176.785 3.455-1.178 3.455-1.178v-.24H5.7z" class="C"/><path d="M4.922 49.53l.167 3.68c.015.344.184.663.458.87l.794.595a1.16 1.16 0 0 0 .691.229H7.8a1.16 1.16 0 0 0 .691-.229l.794-.595c.275-.207.444-.526.46-.87l.167-3.68h-4.99z" class="E"/><path d="M6.84 50.297c.768 0 1.92-.19 2.193-.768H4.922l.167 3.68c.015.344.184.663.458.87l.794.595a1.16 1.16 0 0 0 .691.229h.384c-.384 0-1.15-.768-1.15-1.727V50.87c.001-.2.192-.574.576-.574z" class="B"/><path d="M11 57.305l1.244-1.118c.104.134.165.3.165.477v1.505c0 .2-.172.383-.385.383H10.68v-.532a.96.96 0 0 1 .32-.715zm-7.164 0L2.6 56.187a.78.78 0 0 0-.166.477v1.505c0 .2.172.383.384.383h1.345v-.532c0-.272-.116-.532-.318-.715z" class="F"/><path d="M7.897 58.55h-.96l.12-1.727h.72z" class="S"/><path d="M7.897 56.44h-.96v.1c0 .258.208.466.465.466h.03c.256 0 .465-.208.465-.466v-.1z" class="T"/><path d="M5.663 54.862l1.754 1.578s-.492.247-1.098.747c-.125.104-.314.062-.38-.086l-.824-1.813.26-.4a.19.19 0 0 1 .288-.035zm3.51 0L7.417 56.44s.492.247 1.098.747c.125.104.315.062.382-.086l.824-1.813-.26-.4a.19.19 0 0 0-.288-.035z" class="F"/><path d="M8.58 48.258l.18 1.27c.82.163.94 1.452.957 1.82.003.067.024.13.06.188l.313.487s-.107-.805.384-1.344c-.001.001.167-3.19-1.896-2.422z" class="H"/><path d="M9.93 51.943l-.217.866a.23.23 0 0 1-.224.175.23.23 0 0 1-.229-.203l-.11-.886a.4.4 0 0 1 .395-.446.4.4 0 0 1 .386.494z" class="E"/><path d="M5.106 47.914l.283.194c-1.284.947-1.044 2.573-1.044 2.573.385.384.385 1.344.385 1.344l.384-.384s-.148-1.11.576-1.535c.67-.397 1.26-.193 1.86-.193 1.608 0 2.058-.606 1.98-1.344-.04-.382-.625-1.177-2.112-1.152-.6.01-1.727.193-2.31.497z" class="D"/><path d="M4.994 49.746s-.204-.805.396-1.638c-1.284.947-1.044 2.573-1.044 2.573.385.384.385 1.344.385 1.344l.384-.384s-.148-1.11.576-1.536c.67-.396 1.26-.192 1.86-.192.26 0 .5-.017.692-.047-1.24.042-1.97-.897-3.248-.12z" class="I"/><path d="M4.55 51.943l.217.866a.23.23 0 0 0 .224.175c.116 0 .215-.086.23-.203l.1-.886c.03-.235-.155-.446-.394-.446a.4.4 0 0 0-.387.494z" class="B"/><path d="M9.72 58.168h-.96c-.212 0-.385.17-.385.383h1.728a.38.38 0 0 0-.383-.383z" class="F"/><path d="M13.92 47.542c-3.872 0-3.443 4.71-3.425 8.122.001.13.068.245.18.31.43.26 1.607.864 3.246.864s2.818-.605 3.247-.864a.36.36 0 0 0 .178-.311c.02-3.414.448-8.122-3.425-8.122z" class="D"/><path d="M13.67 47.55c-3.6.203-3.194 4.776-3.176 8.112.001.13.068.245.18.31.43.26 1.607.864 3.246.864l.978-6.85" class="I"/><path d="M13.92 47.542c-2.202 0-2.354 2.66-2.354 2.66 1.27-.215 2.05.32 3.333-.215l-.978 6.85c1.64 0 2.818-.605 3.247-.864a.36.36 0 0 0 .178-.311c.018-3.414.447-8.122-3.426-8.122z" class="D"/><path d="M17.345 55.664c.015-2.933.332-6.82-2.035-7.855-.04.215-.116.813.078 1.202.49.978.978.978 1.468 1.712.49 2.7-.935 5.547-1.408 5.936.838-.198 1.44-.515 1.72-.684.1-.066.178-.183.178-.31z" class="H"/><path d="M17.627 56.406l-2.183-.9a.49.49 0 0 1-.3-.451v-.592h-2.447v.592a.49.49 0 0 1-.301.451l-2.183.9c-.273.114-.45.38-.45.677v.98a.49.49 0 0 0 .489.489h7.34a.49.49 0 0 0 .49-.489v-.98c-.001-.297-.18-.563-.453-.677z" class="B"/><path fill="#b6e1f8" d="M17.627 56.406l-2.11-.88-1.597.69-1.597-.69-2.11.88c-.273.114-.45.38-.45.677v.98a.49.49 0 0 0 .489.489h7.34a.49.49 0 0 0 .49-.489v-.98a.73.73 0 0 0-.451-.677z"/><path d="M15.144 54.453h-2.447v.592a.49.49 0 0 1-.301.451l-.34.143c2.607.665 3.088-1.186 3.088-1.186z" class="C"/><g class="O"><path d="M10.954 57.352l-.983-.78c-.13.136-.2.317-.2.512v.98a.49.49 0 0 0 .489.489h.98v-.626a.74.74 0 0 0-.275-.573zm7.126.7v-.98a.73.73 0 0 0-.208-.509l-.985.778c-.174.14-.275.35-.275.573v.626h.978a.49.49 0 0 0 .49-.489zm-4.123 0h-.073c-.116 0-.208-.094-.208-.2v-1.638h.5v1.638a.21.21 0 0 1-.208.209z"/><path d="M13.92 56.215l-1.4-1.05c-.1-.068-.218-.046-.28.048l-.276.414.858 1.202c.064.093.193.1.28.04l.818-.654zm0 0l1.4-1.05c.1-.068.217-.046.28.048l.276.414-.858 1.202c-.064.093-.194.1-.28.04l-.818-.654z"/></g><path d="M15.144 49.744c-1.224 1.224-3.625.244-3.625 2.2l.152 1.442a.98.98 0 0 0 .5.767l1.393.774c.22.123.49.123.713 0l1.392-.774c.283-.156.47-.443.5-.767l.174-1.712a2.65 2.65 0 0 0 .012-.367c-.092-.622-.967-1.075-1.21-1.564z" class="E"/><path d="M11.52 51.945l.152 1.442a.98.98 0 0 0 .5.767l1.393.774c.154.085.33.106.497.074 0 0-.702-.215-1.12-1.346-.128-.344-.305-2.18-.152-2.404.302-.442 1.987-.49 2.486-1.312-.026-.03-.048-.062-.07-.092l-.062-.106c-1.225 1.225-3.625.246-3.625 2.203z" class="B"/><path d="M15.706 58.062h-.636c-.23 0-.416.187-.416.415v.074h1.468v-.074c0-.228-.187-.415-.416-.415z" class="O"/><path d="M5.506 17.54h9.72v1.375h-9.72zm19.648 20.32h11.64v2.307h-11.64zm63.79-20.408h11.18v2.02h-11.18z" fill="#fff"/></svg>